<?xml version="1.0" encoding="UTF-8" standalone="no"?><svg viewBox="0 0 66.116722 66.358093" xmlns="http://www.w3.org/2000/svg"><g transform="translate(-55.513971,-53.131865)"><path d="m 83.824389,53.13366 c 0,0 8.466666,0 8.466666,0 2.534709,-0.0529 7.437438,1.07421 9.789585,2.05846 0,0 2.64583,1.64306 2.64583,1.64306 1.9394,1.07685 3.52425,1.79652 5.29167,3.24379 4.87362,3.99521 8.68891,10.07004 10.67064,16.01788 0,0 0.94192,2.91041 0.94192,2.91041 0,0 0,3.968753 0,3.968753 0,0 0,8.202083 0,8.202083 -0.0132,3.429 -0.75935,8.35025 -2.39712,11.377084 -0.80963,1.4896 -2.95805,3.53219 -4.18836,4.7625 -1.00806,1.00806 -2.34156,2.42094 -3.43958,3.25967 0,0 -2.60086,1.64835 -2.60086,1.64835 -0.7911,0.65088 -1.15093,1.3679 -2.16164,2.01348 -1.48167,0.94721 -3.68036,1.60602 -5.29167,2.31775 0,0 -1.852081,0.93662 -1.852081,0.93662 0,0 -1.852084,0.46567 -1.852084,0.46567 0,0 -2.116666,0.83608 -2.116666,0.83608 -1.643063,0.50536 -5.360459,0.71438 -7.14375,0.69321 -0.77523,-0.0106 -3.534834,-0.28575 -4.233334,-0.46566 0,0 -2.116666,-0.69586 -2.116666,-0.69586 -1.055688,-0.26987 -1.312334,-0.045 -2.645834,-0.48683 -8.556625,-2.84163 -15.081249,-8.69421 -19.698229,-16.34331 0,0 -2.071687,-3.175004 -2.071687,-3.175004 -1.307042,-2.323042 -2.275417,-6.056313 -2.307167,-8.73125 0,0 0,-3.704167 0,-3.704167 0.01852,-4.019019 0.531813,-5.079999 1.595438,-8.731249 0,0 1.330854,-5.29167 1.330854,-5.29167 1.121833,-2.62731 3.159125,-4.97416 4.974167,-7.14375 0,0 2.46327,-3.1406 2.46327,-3.1406 0,0 1.960563,-1.46579 1.960563,-1.46579 0,0 1.698625,-1.54252 1.698625,-1.54252 0.624416,-0.47096 2.78077,-1.90765 3.439583,-2.20927 0,0 2.645833,-0.75407 2.645833,-0.75407 3.579813,-1.25148 4.183063,-1.75683 8.202084,-2.47385 z m 32.279171,39.896519 c 0.93133,-5.117041 0.80168,-3.455458 0.79375,-8.73125 -0.008,-5.066769 -1.66688,-6.125099 -5.02709,-9.524999 0,0 -3.175,-3.43958 -3.175,-3.43958 0,0 -8.995831,-8.51165 -8.995831,-8.51165 -1.370542,-1.23825 -3.320521,-3.41842 -5.027084,-4.0984 -3.219979,-1.28058 -9.887479,-0.66939 -13.229166,0.17463 0,0 4.233333,3.99256 4.233333,3.99256 0,0 6.604,6.59077 6.604,6.59077 0,0 2.394479,2.64584 2.394479,2.64584 0,0 5.818189,5.56683 5.818189,5.56683 0,0 6.61458,6.603999 6.61458,6.603999 0,0 8.99584,8.73125 8.99584,8.73125 z m -9.26042,15.081251 c 3.09298,-3.09298 3.54541,-3.37873 5.90285,-7.14375 0.51329,-0.82286 1.46844,-1.899709 1.34409,-2.910417 -0.11907,-0.955146 -1.31234,-2.217209 -1.95527,-2.907771 0,0 -5.29167,-5.558896 -5.29167,-5.558896 0,0 -7.408335,-7.154336 -7.408335,-7.154336 0,0 -3.96875,-3.94758 -3.96875,-3.94758 0,0 -10.583333,-9.56998 -10.583333,-9.56998 0,0 -6.085417,-5.59594 -6.085417,-5.59594 -0.642937,-0.56885 -1.849437,-1.92352 -2.645833,-2.05846 -0.844021,-0.14287 -1.981729,0.7964 -2.645833,1.26207 -3.095625,2.16429 -2.106084,1.09537 -5.289021,3.97139 -0.590021,0.53182 -1.820334,1.48167 -1.510771,2.40771 0.108479,0.32544 2.878667,2.74902 3.360208,3.21998 0,0 4.233334,3.75179 4.233334,3.75179 0,0 2.645833,2.55588 2.645833,2.55588 0,0 2.622021,2.42623 2.622021,2.42623 0,0 3.198812,3.436933 3.198812,3.436933 0,0 7.948084,7.675563 7.948084,7.675563 0,0 10.308161,10.583334 10.308161,10.583334 1.53723,1.53723 4.191,4.38944 5.82084,5.55625 z M 63.716056,73.45101 c -1.12448,1.10596 -0.804334,1.57692 -1.330855,2.91042 -1.513416,3.8391 -1.25677,6.00604 -2.108729,9.789583 2.203979,1.397 3.148542,2.513541 5.027084,4.119562 0,0 6.688666,6.310313 6.688666,6.310313 0,0 5.138208,4.990042 5.138208,4.990042 0,0 1.711854,2.04258 1.711854,2.04258 0,0 2.865438,2.91042 2.865438,2.91042 0,0 4.717521,4.7625 4.717521,4.7625 0.820208,0.90752 2.076979,2.60879 3.219979,3.01625 0.722312,0.25665 2.352146,-0.0476 3.175,-0.14552 3.46075,-0.4154 6.201833,-1.51871 9.260418,-3.13531 0,0 -7.683501,-8.72067 -7.683501,-8.72067 0,0 -3.164417,-2.921001 -3.164417,-2.921001 0,0 -6.879167,-6.617229 -6.879167,-6.617229 0,0 -6.35,-6.302375 -6.35,-6.302375 0,0 -14.287499,-13.009565 -14.287499,-13.009565 z m -2.116667,20.372919 c -0.296333,1.674813 1.653646,4.590521 2.450042,6.085417 3.005666,5.643564 11.16277,12.842874 17.658291,13.758334 -4.2545,-6.01663 -14.483292,-14.218709 -20.108333,-19.843751 z m 20.372916,19.843751 c 0,0 -0.264583,0 -0.264583,0 0,0 0.264583,0.26458 0.264583,0.26458 0,0 0,-0.26458 0,-0.26458 z" /></g></svg>