<?xml version="1.0" encoding="UTF-8" standalone="no"?><svg xmlns="http://www.w3.org/2000/svg" viewBox="0 0 250 251"><path d="M 115.00,0.42           C 128.12,-1.17 155.74,0.84 168.00,5.42             168.00,5.42 177.00,10.31 177.00,10.31             186.07,14.66 193.68,17.58 202.00,23.76             220.53,37.52 240.30,65.79 247.10,88.00             247.10,88.00 249.16,104.00 249.16,104.00             249.16,104.00 250.00,151.00 250.00,151.00             249.99,158.26 248.23,171.45 245.32,178.00             242.27,184.88 236.12,191.29 231.29,197.00             226.63,202.52 224.88,205.66 219.00,210.82             219.00,210.82 211.04,216.61 211.04,216.61             211.04,216.61 201.00,226.37 201.00,226.37             194.52,231.14 190.43,232.01 184.00,235.27             184.00,235.27 176.00,239.88 176.00,239.88             176.00,239.88 169.00,242.27 169.00,242.27             169.00,242.27 160.00,246.24 160.00,246.24             147.78,250.40 134.77,251.15 122.00,251.00             114.71,250.91 115.31,249.83 110.00,249.18             110.00,249.18 102.00,248.49 102.00,248.49             73.97,242.73 48.61,224.39 30.30,203.00             30.30,203.00 22.26,192.00 22.26,192.00             14.24,180.93 9.27,175.73 4.75,162.00             0.53,149.18 -0.06,133.43 0.00,120.00             0.05,110.51 1.98,109.10 3.63,101.00             5.09,93.79 5.36,85.96 7.95,79.00             11.98,68.18 19.09,59.26 25.70,50.00             25.70,50.00 32.90,39.10 32.90,39.10             35.22,36.32 36.46,35.84 38.85,33.63             45.06,27.89 50.51,21.53 58.00,17.22             58.00,17.22 68.00,13.21 68.00,13.21             79.61,7.92 88.18,3.77 101.00,1.46             101.00,1.46 115.00,0.42 115.00,0.42 Z           M 195.00,45.00           C 192.13,42.14 189.31,39.16 186.00,36.79             171.47,26.39 146.85,19.21 129.00,19.00             117.07,18.86 119.59,19.36 109.00,20.72             98.77,22.02 93.89,22.61 84.00,26.43             70.95,31.46 66.72,36.23 56.00,43.00             59.65,48.08 78.34,65.05 84.00,70.17             84.00,70.17 99.91,85.04 99.91,85.04             99.91,85.04 108.97,94.42 108.97,94.42             112.59,97.76 121.81,109.56 126.00,109.90             131.22,110.31 142.08,97.81 145.42,94.00             145.42,94.00 155.96,83.96 155.96,83.96             155.96,83.96 164.04,75.04 164.04,75.04             164.04,75.04 172.91,66.96 172.91,66.96             172.91,66.96 179.09,60.10 179.09,60.10             184.86,54.48 188.08,54.66 195.00,45.00 Z           M 112.00,125.00           C 112.00,125.00 97.91,109.09 97.91,109.09             97.91,109.09 91.17,102.91 91.17,102.91             91.17,102.91 74.00,85.09 74.00,85.09             74.00,85.09 64.00,76.83 64.00,76.83             57.71,71.21 48.78,60.65 41.00,58.00             41.00,58.00 34.65,71.00 34.65,71.00             30.94,77.69 28.81,78.46 25.69,87.00             21.51,98.48 21.36,103.48 19.70,115.00             19.70,115.00 18.18,124.00 18.18,124.00             18.18,124.00 18.91,131.00 18.91,131.00             19.76,143.40 21.74,154.36 26.45,166.00             31.77,179.14 35.84,183.02 42.00,194.00             50.06,189.68 73.08,168.33 79.91,161.00             79.91,161.00 91.17,148.00 91.17,148.00             97.19,141.34 106.95,132.05 112.00,125.00 Z           M 209.00,59.00           C 209.00,59.00 188.17,77.09 188.17,77.09             188.17,77.09 179.00,86.99 179.00,86.99             179.00,86.99 169.09,96.04 169.09,96.04             169.09,96.04 161.96,103.91 161.96,103.91             161.96,103.91 154.00,111.04 154.00,111.04             154.00,111.04 140.00,125.00 140.00,125.00             140.00,125.00 158.00,142.04 158.00,142.04             158.00,142.04 182.98,166.04 182.98,166.04             182.98,166.04 192.01,176.00 192.01,176.00             192.01,176.00 204.00,187.85 204.00,187.85             205.71,189.26 207.49,190.74 209.83,189.83             211.74,189.09 214.12,185.70 215.24,184.00             215.24,184.00 224.47,165.00 224.47,165.00             231.89,148.72 234.55,115.21 229.38,98.00             224.70,82.38 217.86,72.29 209.00,59.00 Z           M 195.00,207.00           C 185.25,193.36 158.28,168.84 145.00,156.83             145.00,156.83 132.00,144.93 132.00,144.93             130.45,143.56 128.23,141.20 126.01,141.20             123.47,141.20 121.26,144.29 119.72,146.00             119.72,146.00 107.83,159.00 107.83,159.00             107.83,159.00 84.09,180.30 84.09,180.30             84.09,180.30 70.91,193.86 70.91,193.86             64.69,199.44 60.67,200.18 56.00,208.00             73.61,219.74 91.68,228.94 113.00,231.90             113.00,231.90 123.00,231.90 123.00,231.90             127.32,232.38 129.11,233.23 134.00,232.91             139.17,232.57 161.10,226.53 166.00,224.53             166.00,224.53 184.00,214.56 184.00,214.56             188.50,211.45 189.80,209.74 195.00,207.00 Z" /></svg>