<?xml version="1.0" encoding="UTF-8" standalone="no"?><svg xmlns="http://www.w3.org/2000/svg" viewBox="0 0 250 250"><path d="M 235.00,189.00           C 226.96,195.03 221.12,206.72 210.83,216.25             201.04,225.31 188.87,231.20 177.00,236.98             164.11,243.25 149.60,249.83 135.00,250.00             122.53,250.14 109.32,250.71 97.00,248.68             89.34,247.41 82.14,244.26 75.00,241.40             75.00,241.40 64.00,236.92 64.00,236.92             64.00,236.92 57.00,231.95 57.00,231.95             57.00,231.95 50.00,227.49 50.00,227.49             44.44,223.33 42.54,220.78 37.96,216.00             32.69,210.49 26.21,203.25 21.90,197.00             17.78,191.03 17.78,190.08 14.97,184.00             7.87,168.62 4.24,160.01 1.73,143.00             0.96,137.76 0.07,134.45 0.00,129.00             -0.18,113.30 1.18,118.61 2.71,107.00             3.17,103.53 2.80,101.56 3.78,98.00             3.78,98.00 8.23,86.00 8.23,86.00             9.96,80.47 13.12,69.83 15.63,65.00             15.63,65.00 29.29,45.00 29.29,45.00             34.06,38.95 41.94,30.35 48.00,25.75             62.53,14.72 85.18,6.69 103.00,3.00             112.66,0.99 111.38,-0.12 122.00,0.00             122.00,0.00 141.00,1.30 141.00,1.30             141.00,1.30 152.00,4.11 152.00,4.11             164.24,7.17 176.31,11.11 187.00,18.10             187.00,18.10 197.00,25.33 197.00,25.33             210.30,34.35 219.41,40.68 229.07,54.00             232.25,58.38 232.97,61.40 235.39,66.00             235.39,66.00 241.96,78.00 241.96,78.00             247.64,90.76 250.16,110.05 250.00,124.00             249.87,134.94 245.10,158.26 241.80,169.00             239.80,175.51 234.64,182.49 235.00,189.00 Z           M 128.00,81.00           C 128.00,81.00 128.74,72.00 128.74,72.00             128.74,72.00 127.09,62.00 127.09,62.00             127.09,62.00 126.17,36.00 126.17,36.00             125.57,29.71 127.52,24.42 120.96,20.61             116.53,17.87 112.61,20.02 108.00,20.61             108.00,20.61 87.01,24.25 87.01,24.25             81.76,26.17 80.49,28.65 75.00,31.00             75.00,31.00 97.00,53.04 97.00,53.04             97.00,53.04 108.09,64.96 108.09,64.96             108.09,64.96 128.00,81.00 128.00,81.00 Z           M 127.00,173.00           C 127.00,173.00 128.00,156.00 128.00,156.00             128.00,156.00 127.00,142.00 127.00,142.00             127.00,142.00 127.00,117.00 127.00,117.00             126.98,106.48 122.19,103.23 115.00,96.00             115.00,96.00 102.00,83.29 102.00,83.29             102.00,83.29 86.00,69.91 86.00,69.91             86.00,69.91 77.00,61.28 77.00,61.28             77.00,61.28 65.30,50.91 65.30,50.91             62.72,48.11 60.22,42.87 55.99,44.32             48.73,46.80 38.69,62.46 34.36,69.00             32.74,71.44 29.51,75.93 30.41,78.96             31.27,81.88 36.62,85.25 39.00,87.30             43.69,91.34 47.56,96.31 51.58,101.00             55.30,105.34 61.69,112.06 66.00,115.68             66.00,115.68 73.00,121.18 73.00,121.18             73.00,121.18 85.72,133.42 85.72,133.42             96.47,144.01 115.53,164.89 127.00,173.00 Z           M 23.00,98.00           C 17.16,110.64 18.55,136.49 21.65,150.00             22.70,154.59 24.11,162.31 26.65,166.00             33.62,176.12 52.16,189.90 62.00,198.42             62.00,198.42 87.04,224.35 87.04,224.35             96.03,230.92 117.00,232.00 128.00,232.00             128.00,232.00 128.00,215.00 128.00,215.00             127.99,212.49 127.71,202.83 126.89,201.00             125.15,197.06 117.53,190.89 114.00,188.12             114.00,188.12 96.00,172.83 96.00,172.83             96.00,172.83 88.72,165.17 88.72,165.17             88.72,165.17 74.01,151.00 74.01,151.00             74.01,151.00 60.00,136.01 60.00,136.01             50.03,126.28 30.45,108.40 23.00,98.00 Z" /></svg>