<?xml version="1.0" encoding="UTF-8" standalone="no"?><svg xmlns="http://www.w3.org/2000/svg" viewBox="0 0 100 101"><path d="M 42.00,0.43           C 56.24,-1.33 71.64,0.99 82.91,10.52             96.77,22.23 103.52,47.61 98.95,65.00             98.01,68.56 93.28,77.97 91.07,81.00             85.59,88.53 78.38,92.71 70.00,96.35             61.18,100.17 55.59,101.11 46.00,101.00             37.82,100.90 34.10,98.99 27.00,95.22             19.63,91.31 12.77,86.01 8.10,79.00             1.64,69.29 -1.92,54.56 0.38,43.00             0.38,43.00 2.86,35.00 2.86,35.00             4.30,30.09 5.97,24.39 8.96,20.17             16.86,9.00 28.82,2.59 42.00,0.43 Z           M 92.00,50.00           C 90.06,26.12 76.20,8.55 51.00,8.00             53.87,14.07 60.23,19.23 65.00,24.00             71.40,30.40 85.60,45.42 92.00,50.00 Z           M 83.00,77.00           C 85.44,73.80 90.81,65.11 89.60,61.00             88.83,58.39 81.21,50.28 78.99,48.00             78.99,48.00 52.00,22.02 52.00,22.02             49.34,19.54 41.02,11.60 38.00,10.89             32.07,9.49 26.17,14.69 23.00,19.00             23.00,19.00 43.00,37.09 43.00,37.09             43.00,37.09 60.00,54.00 60.00,54.00             60.00,54.00 83.00,77.00 83.00,77.00 Z           M 17.00,25.00           C 14.17,27.77 8.77,34.70 10.32,38.91             11.37,41.75 21.24,49.67 24.00,52.17             24.00,52.17 49.96,78.00 49.96,78.00             52.77,80.94 58.56,88.57 62.00,89.77             65.70,91.06 73.44,85.71 77.00,84.00             77.00,84.00 62.09,68.01 62.09,68.01             62.09,68.01 17.00,25.00 17.00,25.00 Z           M 9.00,50.00           C 6.82,55.68 10.00,63.96 12.88,69.00             21.59,84.27 34.38,92.84 52.00,93.00             43.67,81.36 20.41,61.41 9.00,50.00 Z" /></svg>