<?xml version="1.0" encoding="UTF-8" standalone="no"?><svg xmlns="http://www.w3.org/2000/svg" viewBox="0 0 250 251"><path d="M 126.00,0.43           C 138.76,-1.15 144.96,0.90 157.00,3.49             161.48,4.45 162.26,3.99 167.00,6.04             167.00,6.04 190.00,19.47 190.00,19.47             195.33,22.85 204.52,28.93 208.98,33.10             212.96,36.82 213.43,38.52 216.37,41.83             220.75,46.78 225.65,51.42 229.31,57.00             229.31,57.00 237.20,73.00 237.20,73.00             238.29,76.47 237.66,77.44 239.50,82.00             239.50,82.00 244.90,94.00 244.90,94.00             244.90,94.00 246.67,105.00 246.67,105.00             248.28,112.59 250.15,114.33 249.98,123.00             249.35,155.41 235.29,193.76 210.91,215.68             204.03,221.87 186.51,234.18 178.00,237.65             178.00,237.65 169.00,240.32 169.00,240.32             151.84,246.84 148.92,250.97 129.00,251.00             129.00,251.00 116.00,251.00 116.00,251.00             100.67,250.82 92.58,247.27 79.00,241.50             72.18,238.60 58.77,232.49 53.00,228.37             53.00,228.37 45.00,221.44 45.00,221.44             45.00,221.44 37.18,214.83 37.18,214.83             37.18,214.83 19.09,190.00 19.09,190.00             19.09,190.00 15.77,183.00 15.77,183.00             10.82,172.83 6.31,163.06 3.48,152.00             -2.23,129.73 -1.18,104.63 6.69,83.00             6.69,83.00 11.13,73.00 11.13,73.00             11.13,73.00 16.67,60.00 16.67,60.00             19.79,54.36 30.58,39.44 35.09,35.18             37.71,32.71 40.20,31.32 43.00,29.24             43.00,29.24 50.00,23.69 50.00,23.69             56.45,19.39 74.38,11.03 82.00,8.31             92.02,4.73 98.19,0.88 109.00,1.00             119.28,1.12 113.88,2.41 126.00,0.43 Z" /></svg>