<?xml version="1.0" encoding="UTF-8" standalone="no"?><svg xmlns="http://www.w3.org/2000/svg" viewBox="0 0 250 250"><path d="M 112.00,0.22           C 112.00,0.22 137.00,0.22 137.00,0.22             147.28,0.02 144.53,0.93 153.00,2.71             162.29,4.67 173.21,6.87 182.00,10.45             190.57,13.94 208.13,25.26 214.79,31.61             223.71,40.12 235.76,59.47 240.37,71.00             240.37,71.00 243.44,82.00 243.44,82.00             251.25,108.52 250.04,116.22 250.00,143.00             249.99,148.45 247.93,162.08 246.01,167.00             246.01,167.00 241.17,176.00 241.17,176.00             241.17,176.00 235.31,189.00 235.31,189.00             233.06,192.41 217.07,209.79 213.91,212.49             207.52,217.94 200.03,221.63 193.00,226.10             193.00,226.10 185.00,231.87 185.00,231.87             185.00,231.87 172.00,236.67 172.00,236.67             163.02,240.75 155.87,245.67 146.00,248.41             138.88,250.38 131.32,250.08 124.00,250.00             107.57,249.80 96.98,246.45 82.00,240.45             74.57,237.47 66.69,234.08 60.00,229.64             52.06,224.38 46.90,219.43 40.00,213.09             40.00,213.09 31.09,205.82 31.09,205.82             25.92,200.91 16.66,186.63 13.26,180.00             2.86,159.70 -0.04,142.52 0.00,120.00             0.01,112.11 0.82,109.48 2.50,102.00             2.50,102.00 4.78,90.00 4.78,90.00             7.61,80.16 17.99,62.70 23.91,54.00             23.91,54.00 27.82,47.28 27.82,47.28             27.82,47.28 42.04,31.32 42.04,31.32             58.91,16.57 89.95,4.51 112.00,0.22 Z           M 193.00,43.00           C 193.00,43.00 181.00,32.64 181.00,32.64             181.00,32.64 160.00,22.63 160.00,22.63             160.00,22.63 154.00,21.68 154.00,21.68             139.74,19.18 129.56,17.98 115.00,18.00             105.11,18.02 103.96,18.74 95.00,22.05             95.00,22.05 88.00,24.26 88.00,24.26             77.34,28.80 71.46,33.57 62.00,39.00             62.00,39.00 88.28,65.09 88.28,65.09             88.28,65.09 129.00,109.00 129.00,109.00             129.00,109.00 137.00,102.80 137.00,102.80             137.00,102.80 154.91,85.00 154.91,85.00             154.91,85.00 164.13,74.28 164.13,74.28             175.78,62.29 183.04,57.10 193.00,43.00 Z           M 45.00,195.00           C 45.00,195.00 62.91,177.00 62.91,177.00             62.91,177.00 74.17,164.00 74.17,164.00             74.17,164.00 93.00,145.04 93.00,145.04             93.00,145.04 107.17,131.58 107.17,131.58             109.05,129.77 112.96,126.54 113.55,124.00             114.55,119.69 104.91,110.91 102.00,108.00             102.00,108.00 87.91,93.04 87.91,93.04             87.91,93.04 81.09,86.83 81.09,86.83             81.09,86.83 73.96,79.00 73.96,79.00             73.96,79.00 63.04,68.00 63.04,68.00             60.00,64.84 50.46,53.32 46.04,54.49             42.73,55.36 40.52,60.08 39.45,63.00             39.45,63.00 30.40,83.00 30.40,83.00             26.16,91.28 23.31,94.03 21.46,104.00             21.46,104.00 20.49,111.00 20.49,111.00             19.76,114.52 18.62,117.23 18.57,121.00             18.44,132.02 21.85,142.39 24.00,153.00             24.00,153.00 25.79,164.00 25.79,164.00             28.18,172.38 38.40,189.50 45.00,195.00 Z           M 209.00,191.00           C 214.54,185.41 221.48,177.52 224.19,170.00             224.19,170.00 227.89,152.00 227.89,152.00             227.89,152.00 230.54,142.00 230.54,142.00             232.72,130.65 232.99,108.97 229.54,98.00             229.54,98.00 225.45,89.00 225.45,89.00             221.02,78.23 221.03,76.31 213.97,66.00             212.52,63.87 209.67,59.32 206.93,59.03             203.76,58.69 199.99,63.89 197.96,66.00             197.96,66.00 182.75,82.17 182.75,82.17             182.75,82.17 175.83,90.96 175.83,90.96             172.39,94.64 169.60,96.21 166.00,99.30             166.00,99.30 153.17,111.58 153.17,111.58             150.97,113.69 145.34,119.20 144.74,122.00             144.13,124.86 146.20,126.65 148.06,128.42             148.06,128.42 161.00,140.42 161.00,140.42             161.00,140.42 184.17,165.00 184.17,165.00             184.17,165.00 197.96,179.00 197.96,179.00             201.75,182.96 204.77,187.50 209.00,191.00 Z           M 59.00,209.00           C 75.72,220.83 95.22,230.48 116.00,231.75             116.00,231.75 128.00,231.75 128.00,231.75             134.53,231.35 135.46,232.18 143.00,230.69             147.98,229.70 151.47,227.37 156.00,225.80             160.92,224.08 159.55,225.66 166.00,222.29             166.00,222.29 176.00,216.84 176.00,216.84             180.73,214.94 183.39,215.25 188.00,211.61             189.86,210.13 192.71,207.53 192.89,205.00             193.20,200.75 183.95,192.08 181.09,189.00             181.09,189.00 163.09,170.00 163.09,170.00             163.09,170.00 155.96,162.04 155.96,162.04             155.96,162.04 145.00,152.00 145.00,152.00             141.77,148.81 132.75,137.90 128.00,139.30             125.85,139.93 122.62,143.37 121.01,145.00             121.01,145.00 105.57,162.99 105.57,162.99             105.57,162.99 95.01,173.01 95.01,173.01             95.01,173.01 86.93,181.91 86.93,181.91             86.93,181.91 69.83,198.91 69.83,198.91             69.83,198.91 59.00,209.00 59.00,209.00 Z" /></svg>