<?xml version="1.0" encoding="UTF-8" standalone="no"?><svg xmlns="http://www.w3.org/2000/svg" viewBox="0 0 250 250"><path d="M 103.00,0.23           C 103.00,0.23 130.00,0.23 130.00,0.23             144.78,0.02 159.49,5.05 173.00,10.55             173.00,10.55 187.00,16.32 187.00,16.32             196.81,21.59 203.96,28.51 212.00,35.91             212.00,35.91 219.71,42.32 219.71,42.32             223.32,45.77 230.53,55.61 233.16,60.00             233.16,60.00 238.26,71.00 238.26,71.00             238.26,71.00 243.60,81.00 243.60,81.00             246.17,87.79 245.40,89.00 246.46,95.00             247.95,103.41 249.99,108.14 250.00,117.00             250.04,142.01 245.89,164.79 233.69,187.00             227.19,198.84 208.82,219.34 198.00,227.06             194.53,229.54 191.65,230.43 188.00,232.44             188.00,232.44 170.00,241.80 170.00,241.80             159.09,246.36 137.83,250.14 126.00,250.00             119.35,249.92 120.08,249.11 116.00,248.75             116.00,248.75 107.00,248.75 107.00,248.75             107.00,248.75 88.00,244.75 88.00,244.75             81.16,243.08 78.03,243.38 71.00,239.77             66.86,237.64 63.72,235.02 60.00,232.37             60.00,232.37 53.00,228.01 53.00,228.01             47.44,224.16 43.37,218.95 38.72,214.17             38.72,214.17 31.38,206.99 31.38,206.99             31.38,206.99 22.91,194.00 22.91,194.00             22.91,194.00 16.10,185.00 16.10,185.00             13.09,180.43 6.47,165.45 4.91,160.00             -1.30,138.29 -0.03,129.79 0.00,108.00             0.02,95.45 3.40,93.82 7.05,83.00             7.05,83.00 8.99,75.00 8.99,75.00             10.63,70.70 22.41,50.70 25.38,47.00             25.38,47.00 33.68,38.00 33.68,38.00             33.68,38.00 39.18,31.32 39.18,31.32             56.71,14.64 79.69,5.50 103.00,0.23 Z           M 130.00,18.00           C 130.00,18.00 122.00,18.00 122.00,18.00             122.00,18.00 130.00,26.00 130.00,26.00             130.00,26.00 130.00,18.00 130.00,18.00 Z           M 131.00,118.00           C 131.00,118.00 130.00,102.00 130.00,102.00             130.00,102.00 130.00,67.00 130.00,67.00             130.00,67.00 129.33,55.17 129.33,55.17             128.32,52.40 124.29,49.94 122.09,47.83             114.24,40.27 117.16,40.04 105.01,30.86             102.21,28.74 97.36,22.83 94.83,22.48             92.48,22.15 87.32,24.31 85.00,25.19             76.78,28.32 70.39,30.95 63.58,36.78             61.57,38.50 57.27,41.38 56.91,44.04             56.24,48.93 69.24,58.12 72.72,62.00             72.72,62.00 84.96,74.04 84.96,74.04             84.96,74.04 97.17,87.83 97.17,87.83             97.17,87.83 109.00,98.09 109.00,98.09             114.92,103.60 124.76,113.53 131.00,118.00 Z           M 131.00,201.00           C 131.00,201.00 131.00,178.00 131.00,178.00             131.00,178.00 132.00,161.00 132.00,161.00             132.01,157.50 132.36,148.88 131.26,146.00             129.63,141.74 123.48,136.58 120.00,133.58             120.00,133.58 99.00,115.70 99.00,115.70             99.00,115.70 90.83,107.42 90.83,107.42             90.83,107.42 67.42,84.72 67.42,84.72             60.80,77.99 47.75,62.31 40.00,59.00             40.00,59.00 26.25,83.00 26.25,83.00             24.78,85.93 22.30,90.67 22.81,94.00             23.44,98.10 28.07,101.43 31.00,104.05             31.00,104.05 52.00,122.04 52.00,122.04             55.21,125.10 59.77,129.63 62.54,133.00             62.54,133.00 70.18,142.83 70.18,142.83             70.18,142.83 84.00,154.30 84.00,154.30             84.00,154.30 99.91,170.00 99.91,170.00             99.91,170.00 107.30,179.00 107.30,179.00             112.90,185.53 123.89,196.23 131.00,201.00 Z           M 19.08,120.00           C 17.20,124.55 18.60,127.40 19.08,132.00             19.08,132.00 19.08,143.00 19.08,143.00             19.08,143.00 24.20,158.00 24.20,158.00             27.88,170.47 26.12,172.98 34.55,186.00             50.62,210.84 88.28,230.95 118.00,231.00             118.00,231.00 132.00,231.00 132.00,231.00             125.04,220.04 114.62,212.98 105.09,204.54             105.09,204.54 88.83,187.32 88.83,187.32             88.83,187.32 67.00,168.83 67.00,168.83             67.00,168.83 46.58,148.21 46.58,148.21             46.58,148.21 40.17,142.79 40.17,142.79             40.17,142.79 29.43,131.72 29.43,131.72             29.43,131.72 19.08,120.00 19.08,120.00 Z" /></svg>