<?xml version="1.0" encoding="UTF-8" standalone="no"?><svg xmlns="http://www.w3.org/2000/svg" viewBox="0 0 250 249"><path d="M 110.00,0.51           C 125.03,-1.84 156.73,1.33 171.00,6.66             176.29,8.63 197.50,20.98 202.00,24.52             207.62,28.93 220.42,42.12 224.56,48.00             224.56,48.00 231.91,60.00 231.91,60.00             241.13,74.90 249.97,96.27 249.76,114.00             249.76,114.00 249.76,129.00 249.76,129.00             250.10,139.06 247.54,148.34 245.01,158.00             245.01,158.00 243.19,167.00 243.19,167.00             243.19,167.00 238.97,175.00 238.97,175.00             235.71,181.46 232.53,188.04 228.38,194.00             218.68,207.96 199.91,225.45 185.00,233.69             173.15,240.24 157.47,246.82 144.00,248.85             144.00,248.85 116.00,248.85 116.00,248.85             108.48,248.91 101.22,247.03 94.00,245.15             94.00,245.15 81.00,242.12 81.00,242.12             70.77,238.38 51.19,226.68 43.09,219.63             43.09,219.63 36.91,213.18 36.91,213.18             33.53,209.99 29.89,208.35 26.90,204.70             18.29,194.20 14.76,184.30 10.09,172.00             10.09,172.00 4.90,159.00 4.90,159.00             4.90,159.00 3.48,150.00 3.48,150.00             3.48,150.00 1.09,141.00 1.09,141.00             -0.20,134.16 -0.61,115.88 0.29,109.00             0.29,109.00 3.77,94.00 3.77,94.00             5.73,85.94 6.80,79.70 10.31,72.00             13.48,65.04 14.81,65.13 17.96,60.00             24.32,49.67 30.67,39.43 40.04,31.47             40.04,31.47 50.00,24.32 50.00,24.32             55.19,20.37 62.15,14.20 68.00,11.52             79.25,6.37 97.47,3.61 110.00,0.51 Z" /></svg>