<?xml version="1.0" encoding="UTF-8" standalone="no"?><svg xmlns="http://www.w3.org/2000/svg" viewBox="0 0 250 250"><path d="M 234.00,189.00           C 226.14,195.50 222.25,205.33 215.25,212.62             215.25,212.62 204.09,220.68 204.09,220.68             204.09,220.68 197.91,226.62 197.91,226.62             190.97,232.41 180.53,238.46 172.00,241.56             162.74,244.93 151.78,246.98 142.00,248.15             134.06,249.11 131.51,250.09 123.00,250.00             110.91,249.86 92.36,245.79 81.00,241.56             70.17,237.53 56.90,228.59 48.00,221.25             23.14,200.74 7.94,177.90 2.25,146.00             1.25,140.40 0.07,137.87 0.00,132.00             0.00,132.00 0.00,117.00 0.00,117.00             0.02,106.78 3.04,98.49 6.30,89.00             6.30,89.00 9.07,79.00 9.07,79.00             11.59,72.96 23.78,52.33 27.80,47.17             29.69,44.73 44.42,30.63 47.00,28.79             47.00,28.79 56.00,23.45 56.00,23.45             56.00,23.45 65.00,17.35 65.00,17.35             77.36,10.46 95.04,3.93 109.00,1.46             109.00,1.46 126.00,0.09 126.00,0.09             126.00,0.09 136.17,0.09 136.17,0.09             140.65,0.25 142.73,1.22 147.00,1.87             178.23,6.58 203.01,21.20 223.71,45.00             230.84,53.19 238.80,67.62 242.10,78.00             242.10,78.00 244.04,86.00 244.04,86.00             245.83,92.26 247.87,98.51 248.71,105.00             248.71,105.00 249.34,120.00 249.34,120.00             249.34,122.42 248.99,123.34 249.34,126.00             249.34,126.00 249.99,134.00 249.99,134.00             250.09,138.46 249.12,147.65 248.18,152.00             248.18,152.00 239.19,178.00 239.19,178.00             236.97,182.96 234.39,183.25 234.00,189.00 Z           M 128.00,84.00           C 128.00,84.00 128.00,36.00 128.00,36.00             128.00,33.98 128.12,30.89 127.40,29.04             126.51,26.73 124.79,25.32 122.98,23.73             121.24,22.20 119.20,20.39 117.00,19.60             110.17,17.13 98.61,21.41 92.00,23.11             88.38,24.03 76.20,27.48 76.20,32.09             76.20,34.84 86.58,43.59 89.00,45.72             89.00,45.72 115.99,72.00 115.99,72.00             120.60,76.73 122.49,80.02 128.00,84.00 Z           M 58.00,43.00           C 58.00,43.00 51.79,49.34 51.79,49.34             42.89,57.55 31.41,66.32 29.00,79.00             36.95,83.98 49.35,95.18 55.96,102.00             55.96,102.00 69.00,115.96 69.00,115.96             69.00,115.96 92.54,139.28 92.54,139.28             92.54,139.28 102.00,149.99 102.00,149.99             110.10,157.98 119.07,164.84 126.00,174.00             129.07,168.72 127.54,165.66 127.74,160.00             127.74,160.00 128.26,135.00 128.26,135.00             128.43,130.20 127.79,113.98 126.15,110.00             124.35,105.64 110.94,92.94 107.00,89.00             107.00,89.00 93.00,75.96 93.00,75.96             93.00,75.96 80.00,63.17 80.00,63.17             80.00,63.17 58.00,43.00 58.00,43.00 Z           M 23.00,99.00           C 18.84,103.90 19.03,110.87 19.00,117.00             19.00,117.00 18.41,128.00 18.41,128.00             18.41,128.00 20.14,136.72 20.14,136.72             20.14,136.72 20.14,144.00 20.14,144.00             20.65,149.62 23.47,159.15 26.22,164.00             29.16,169.19 33.78,172.21 37.96,176.17             37.96,176.17 47.01,186.00 47.01,186.00             47.01,186.00 58.00,196.09 58.00,196.09             58.00,196.09 88.00,225.15 88.00,225.15             95.42,229.65 117.04,232.00 126.00,232.00             126.00,232.00 126.00,206.00 126.00,206.00             125.86,198.58 121.90,195.18 116.96,190.00             116.96,190.00 107.83,180.17 107.83,180.17             107.83,180.17 98.01,171.00 98.01,171.00             98.01,171.00 89.91,162.17 89.91,162.17             89.91,162.17 69.00,142.96 69.00,142.96             69.00,142.96 50.00,124.09 50.00,124.09             50.00,124.09 23.00,99.00 23.00,99.00 Z" /></svg>