<?xml version="1.0" encoding="UTF-8" standalone="no"?><svg viewBox="0 0 66.123437 66.090765" xmlns="http://www.w3.org/2000/svg"><g transform="translate(-52.118425,118.97935)"><path d="m 81.752902,-118.97785 c 0,0 3.439584,0 3.439584,0 2.870729,-0.0529 8.641291,1.30175 11.377083,2.31511 0,0 4.233331,1.30439 4.233331,1.30439 1.57957,0.71438 6.39763,4.37092 7.64911,5.60653 1.43668,1.41816 2.95275,3.57452 4.07987,5.26785 2.286,3.42635 4.35504,7.268103 5.08265,11.377083 0,0 0.16933,2.116666 0.16933,2.116666 0,0 0.45773,2.116667 0.45773,2.116667 0,0 0,4.233333 0,4.233333 0.0185,3.159125 -0.89958,5.738813 -1.66687,8.73125 0,0 -0.30692,1.852084 -0.30692,1.852084 -0.24077,0.90752 -0.75142,1.539875 -1.12977,2.38125 0,0 -1.12713,2.910416 -1.12713,2.910416 -0.44979,0.791104 -1.85737,2.362729 -2.5056,3.175 -2.84692,3.556 -6.33148,6.797146 -10.36373,8.982604 0,0 -6.159501,2.293938 -6.159501,2.293938 0,0 -3.704167,0.563562 -3.704167,0.563562 -2.749021,0.45773 -4.849812,0.891646 -7.672916,0.859896 0,0 -2.38125,-0.219604 -2.38125,-0.219604 -4.265084,-0.425979 -4.275667,-0.550333 -8.202084,-2.344208 0,0 -2.116666,-0.931334 -2.116666,-0.931334 0,0 -2.116667,-1.404937 -2.116667,-1.404937 0,0 -2.38125,-1.293813 -2.38125,-1.293813 -1.322917,-1.00277 -2.251604,-2.428875 -3.442229,-3.571875 -3.489854,-3.346979 -6.138333,-6.085416 -8.085666,-10.607145 -2.764896,-6.410855 -2.770188,-10.165292 -2.759605,-16.933334 0.0053,-3.860271 1.420813,-6.929437 3.108855,-10.318749 1.296458,-2.59821 1.754187,-4.21481 3.643312,-6.61458 3.291416,-4.18307 10.070041,-8.80005 15.20825,-10.30817 0,0 7.672916,-1.53988 7.672916,-1.53988 z m 30.162498,42.010546 c 0.4154,-1.439333 1.52136,-7.059083 1.57692,-8.466667 0.0344,-0.881062 -0.25929,-4.320646 -0.6006,-5.027083 -0.80963,-1.666875 -3.50573,-4.098396 -4.94507,-5.336646 0,0 -5.29166,-4.71752 -5.29166,-4.71752 -2.677588,-2.32304 -2.00819,-2.35744 -3.992567,-4.49792 0,0 -3.680354,-3.65919 -3.680354,-3.65919 0,0 -2.378604,-1.94204 -2.378604,-1.94204 -1.005417,-0.91016 -2.492375,-2.73843 -3.706813,-3.19881 -0.470958,-0.17992 -2.76225,-0.2831 -3.439583,-0.32544 -1.037167,-0.0661 -2.143125,0.1958 -3.175,0.32015 -3.045354,0.36512 -3.304646,0.2196 -6.35,1.397 0,0 3.175,3.43958 3.175,3.43958 0,0 3.172354,2.921 3.172354,2.921 0,0 2.394479,2.62467 2.394479,2.62467 0,0 2.0955,1.88648 2.0955,1.88648 0,0 2.137834,2.357436 2.137834,2.357436 0,0 2.788708,2.690812 2.788708,2.690812 0,0 4.884208,5.244042 4.884208,5.244042 0,0 2.899834,2.651125 2.899834,2.651125 0,0 4.233334,4.183063 4.233334,4.183063 0,0 2.11667,1.68275 2.11667,1.68275 0,0 6.08541,5.773208 6.08541,5.773208 z M 98.950819,-110.56939 c 0,0 -0.264583,0 -0.264583,0 0,0 0.264583,0.26459 0.264583,0.26459 0,0 0,-0.26459 0,-0.26459 z m 0.264583,0.26459 c 0,0 -0.264583,0 -0.264583,0 0,0 0.264583,0.26458 0.264583,0.26458 0,0 0,-0.26458 0,-0.26458 z m -37.306249,8.99583 c 0,0 5.982228,5.566833 5.982228,5.566833 0,0 1.481667,2.08227 1.481667,2.08227 0,0 3.645958,3.243792 3.645958,3.243792 0,0 2.143125,2.291292 2.143125,2.291292 0,0 3.677709,3.069166 3.677709,3.069166 0,0 11.115146,10.895542 11.115146,10.895542 0,0 7.032625,6.982354 7.032625,6.982354 0.627062,0.719667 3.590399,3.685646 4.333879,3.878792 0.83873,0.219604 2.01612,-1.36525 2.65641,-1.910292 3.28877,-2.788708 2.2225,-1.042458 4.71223,-5.1435 0.51329,-0.846666 1.19856,-1.621896 0.74613,-2.645833 -0.34925,-0.799042 -1.88384,-2.251604 -2.54794,-2.910417 0,0 -6.35,-5.865812 -6.35,-5.865812 0,0 -9.525001,-9.456209 -9.525001,-9.456209 0,0 -2.910417,-2.450041 -2.910417,-2.450041 0,0 -7.119937,-6.834187 -7.119937,-6.834187 0,0 -2.405063,-2.62202 -2.405063,-2.62202 -1.457854,-1.37319 -2.648479,-2.14842 -4.040187,-3.73063 -0.775229,-0.88371 -2.185459,-2.76489 -3.368146,-2.96862 -0.976313,-0.16933 -2.439458,0.88635 -3.175,1.4605 -1.905,1.48696 -5.455708,4.75456 -6.085416,7.06702 z m 37.570833,-8.73125 c 0,0 -0.264584,0 -0.264584,0 0,0 0.264584,0.26458 0.264584,0.26458 0,0 0,-0.26458 0,-0.26458 z m 0.264583,0.26458 c 0.193146,1.28852 1.423461,2.02406 2.270121,2.93423 1.50019,1.61396 6.12775,6.33413 7.78405,7.384523 -0.27782,-1.635123 -1.24355,-1.894413 -2.24102,-3.175003 0,0 -1.92882,-2.62202 -1.92882,-2.62202 -0.7911,-0.88106 -4.81806,-3.89996 -5.884331,-4.52173 z m -40.48125,12.700003 c -1.023937,1.576916 -2.434166,6.077479 -2.521479,7.9375 0,0 0.166688,2.116666 0.166688,2.116666 -0.01323,0.944563 -0.230188,2.582334 0,3.394604 0.328083,0.926042 2.108729,2.20398 2.883958,2.958042 0,0 6.87652,7.141104 6.87652,7.141104 0,0 4.545542,4.982104 4.545542,4.982104 0,0 2.865438,2.471209 2.865438,2.471209 0,0 3.96875,3.923771 3.96875,3.923771 0.796395,0.785812 4.24127,4.05077 5.027083,4.339166 0.566208,0.209021 1.743604,0.161396 2.38125,0.15875 2.259542,-0.01058 4.431771,-0.687916 6.614583,-1.190625 1.637771,-0.378354 3.622146,-0.762 5.027084,-1.719791 0,0 -4.751917,-3.979334 -4.751917,-3.979334 0,0 -3.548063,-3.783541 -3.548063,-3.783541 0,0 -1.754187,-1.521355 -1.754187,-1.521355 0,0 -6.037792,-5.871104 -6.037792,-5.871104 0,0 -1.68275,-1.9685 -1.68275,-1.9685 0,0 -4.704291,-4.572 -4.704291,-4.572 0,0 -5.30225,-5.545666 -5.30225,-5.545666 0,0 -3.944938,-3.384021 -3.944938,-3.384021 0,0 -2.164292,-2.373313 -2.164292,-2.373313 0,0 -3.944937,-3.513666 -3.944937,-3.513666 z m 0.264584,22.489583 c 0,0 -0.264584,0 -0.264584,0 0,0 0.264584,0.264583 0.264584,0.264583 0,0 0,-0.264583 0,-0.264583 z m 0.264583,0.529167 c -0.460375,1.695979 1.0795,3.418416 1.931458,4.7625 2.577042,4.05077 7.765521,8.646583 12.620625,9.525 0,0 -3.341688,-3.550709 -3.341688,-3.550709 0,0 -1.44727,-1.730375 -1.44727,-1.730375 0,0 -3.193521,-3.074458 -3.193521,-3.074458 0,0 -6.569604,-5.931958 -6.569604,-5.931958 z" /></g></svg>