<?xml version="1.0" encoding="UTF-8" standalone="no"?><svg viewBox="0 0 65.578489 66.101351" xmlns="http://www.w3.org/2000/svg"><g transform="translate(238.0026,-90.216736)"><path d="m -205.45854,90.220565 c 0,0 4.23333,0 4.23333,0 2.84956,-0.05027 2.84162,0.399521 5.29167,1.100667 0,0 1.5875,0.346604 1.5875,0.346604 0,0 2.38125,1.0795 2.38125,1.0795 0,0 2.11666,0.889 2.11666,0.889 2.42623,1.280583 7.39775,5.519208 9.13871,7.641164 1.33086,1.62454 2.19075,3.23586 3.22263,5.02709 0.9472,1.6457 1.84943,2.55058 2.59556,4.49791 0.65352,1.69598 0.49212,2.72256 0.81492,3.96875 0,0 1.63777,4.23334 1.63777,4.23334 0,0 0,3.96874 0,3.96874 0.0767,3.41842 -0.1323,5.68855 -1.12184,8.99584 0,0 -0.73554,2.11666 -0.73554,2.11666 -0.55298,1.91294 -0.9181,3.2385 -1.93146,5.02709 0,0 -2.43416,3.43958 -2.43416,3.43958 -0.74877,1.03981 -1.3388,2.20663 -2.23838,3.13002 -1.94733,2.00025 -3.41842,2.49502 -5.50862,3.90525 -3.28348,2.21986 -7.00617,4.55084 -10.84792,5.65415 -3.46869,0.99483 -7.7814,1.11125 -11.37708,1.06891 -3.4978,-0.0423 -7.49565,-1.56104 -10.58334,-3.10885 -4.63285,-2.32304 -6.99293,-4.40531 -10.39283,-8.26823 0,0 -2.09815,-2.38125 -2.09815,-2.38125 0,0 -1.25412,-2.11667 -1.25412,-2.11667 0,0 -1.19856,-1.85208 -1.19856,-1.85208 -0.79375,-1.53458 -0.90488,-2.46327 -1.42346,-3.96875 -2.18281,-6.35264 -2.42888,-7.0141 -2.41829,-13.75833 0.005,-2.60879 0.32014,-2.17752 0.79375,-4.49792 0,0 0.53975,-3.175 0.53975,-3.175 0,0 1.63777,-3.96875 1.63777,-3.96875 2.62466,-5.74675 4.56406,-7.62529 9.46414,-11.512018 2.50825,-1.992313 2.04788,-2.198688 5.29167,-3.765021 4.75456,-2.296583 9.69698,-2.823104 14.81667,-3.717396 z" /></g></svg>