<?xml version="1.0" encoding="UTF-8" standalone="no"?><svg xmlns="http://www.w3.org/2000/svg" viewBox="0 0 250 252"><path d="M 107.00,0.21           C 107.00,0.21 128.00,0.21 128.00,0.21             154.91,0.04 190.49,11.93 210.68,29.86             210.68,29.86 216.18,35.92 216.18,35.92             216.18,35.92 221.68,41.17 221.68,41.17             226.18,46.04 234.00,58.89 237.01,65.00             237.01,65.00 240.95,76.00 240.95,76.00             249.78,100.16 250.04,110.99 250.00,136.00             249.98,150.48 248.28,155.73 243.54,169.00             241.58,174.50 239.74,179.90 236.79,185.00             236.79,185.00 224.28,202.00 224.28,202.00             217.61,211.10 211.90,218.89 202.91,225.99             195.84,231.57 187.84,234.85 180.00,239.15             170.35,244.44 148.03,250.87 137.00,251.00             137.00,251.00 127.00,251.00 127.00,251.00             127.00,251.00 115.00,251.90 115.00,251.90             115.00,251.90 84.00,246.37 84.00,246.37             84.00,246.37 68.00,239.36 68.00,239.36             68.00,239.36 59.00,233.32 59.00,233.32             33.82,217.25 13.92,192.59 4.60,164.00             2.64,158.00 0.01,135.70 0.00,129.00             0.00,129.00 0.00,108.00 0.00,108.00             0.02,97.72 5.74,83.41 9.97,74.00             9.97,74.00 14.04,63.00 14.04,63.00             21.57,48.60 37.72,29.76 51.00,20.44             59.46,14.50 63.14,14.00 72.00,10.54             72.00,10.54 81.00,6.45 81.00,6.45             89.29,3.10 98.22,1.75 107.00,0.21 Z           M 127.00,18.00           C 117.15,19.77 115.50,18.18 112.00,18.80             112.00,18.80 102.00,21.79 102.00,21.79             97.14,22.85 93.91,22.67 90.00,26.00             90.00,26.00 126.00,60.00 126.00,60.00             126.00,60.00 127.00,41.00 127.00,41.00             127.00,41.00 127.00,18.00 127.00,18.00 Z           M 72.00,33.00           C 54.50,43.57 59.82,39.47 45.96,54.00             41.35,58.84 39.49,60.02 36.00,66.00             36.00,66.00 45.03,74.96 45.03,74.96             45.03,74.96 56.92,86.09 56.92,86.09             56.92,86.09 66.00,95.96 66.00,95.96             66.00,95.96 96.83,123.17 96.83,123.17             96.83,123.17 127.00,153.00 127.00,153.00             127.00,153.00 127.00,94.00 127.00,94.00             127.00,94.00 126.40,87.04 126.40,87.04             126.40,87.04 112.00,72.96 112.00,72.96             112.00,72.96 92.98,53.17 92.98,53.17             92.98,53.17 72.00,33.00 72.00,33.00 Z           M 126.00,233.00           C 126.00,233.00 126.00,210.00 126.00,210.00             126.00,210.00 127.00,196.00 127.00,196.00             127.00,196.00 126.43,181.32 126.43,181.32             126.43,181.32 120.71,174.91 120.71,174.91             120.71,174.91 103.04,158.96 103.04,158.96             103.04,158.96 83.00,138.04 83.00,138.04             83.00,138.04 71.00,127.91 71.00,127.91             71.00,127.91 59.72,116.29 59.72,116.29             59.72,116.29 51.00,108.83 51.00,108.83             51.00,108.83 42.42,100.83 42.42,100.83             42.42,100.83 26.00,84.00 26.00,84.00             21.04,94.51 19.10,117.90 18.17,130.00             17.46,139.33 28.01,145.28 34.00,151.04             34.00,151.04 44.09,162.00 44.09,162.00             44.09,162.00 61.00,179.00 61.00,179.00             61.00,179.00 82.00,198.09 82.00,198.09             82.00,198.09 107.00,222.83 107.00,222.83             113.60,228.77 116.78,232.55 126.00,233.00 Z           M 27.00,167.00           C 27.00,167.00 26.00,167.00 26.00,167.00             26.00,167.00 27.00,168.00 27.00,168.00             27.00,168.00 27.00,167.00 27.00,167.00 Z           M 28.00,168.00           C 26.28,174.37 32.71,182.17 36.25,187.00             45.82,200.08 55.71,209.09 70.00,216.92             74.76,219.53 77.61,221.90 83.00,223.00             83.00,223.00 62.00,202.32 62.00,202.32             62.00,202.32 54.01,195.91 54.01,195.91             54.01,195.91 40.83,181.00 40.83,181.00             40.83,181.00 28.00,168.00 28.00,168.00 Z           M 84.00,223.00           C 84.00,223.00 83.00,223.00 83.00,223.00             83.00,223.00 84.00,224.00 84.00,224.00             84.00,224.00 84.00,223.00 84.00,223.00 Z" /></svg>