<?xml version="1.0" encoding="UTF-8" standalone="no"?><svg xmlns="http://www.w3.org/2000/svg" viewBox="0 0 250 251"><path d="M 124.00,0.42           C 138.88,-1.39 146.97,0.99 161.00,5.00             172.50,8.28 178.20,9.09 189.00,15.96             189.00,15.96 195.00,20.20 195.00,20.20             195.00,20.20 202.00,24.39 202.00,24.39             206.27,27.72 209.43,32.08 213.09,36.00             213.09,36.00 224.39,48.00 224.39,48.00             224.39,48.00 235.47,67.00 235.47,67.00             235.47,67.00 237.77,74.00 237.77,74.00             237.77,74.00 244.45,88.00 244.45,88.00             247.67,97.09 249.88,115.25 250.00,125.00             250.00,125.00 250.00,134.00 250.00,134.00             249.98,143.79 249.17,141.59 247.45,150.00             244.32,165.30 243.20,168.78 236.79,183.00             236.79,183.00 234.06,189.58 234.06,189.58             234.06,189.58 226.05,199.00 226.05,199.00             226.05,199.00 219.68,206.96 219.68,206.96             214.77,212.56 207.92,217.16 202.00,221.59             194.39,227.30 192.08,229.85 183.00,234.22             183.00,234.22 174.00,238.21 174.00,238.21             169.88,240.42 169.11,241.85 164.00,243.76             164.00,243.76 138.00,249.52 138.00,249.52             138.00,249.52 131.00,249.52 131.00,249.52             125.98,249.89 128.03,251.12 117.00,251.00             103.75,250.85 76.69,243.59 65.00,237.46             65.00,237.46 56.00,231.51 56.00,231.51             45.55,224.55 37.01,219.07 28.39,209.58             28.39,209.58 21.57,200.00 21.57,200.00             18.96,196.59 15.43,192.64 13.36,189.00             10.04,183.16 3.60,162.93 2.20,156.09             2.20,156.09 2.20,150.84 2.20,150.84             0.94,144.28 0.04,144.93 0.08,137.00             0.08,137.00 0.08,117.00 0.08,117.00             0.08,117.00 1.72,107.00 1.72,107.00             1.72,107.00 2.90,98.00 2.90,98.00             2.90,98.00 6.10,88.00 6.10,88.00             8.26,80.89 6.47,79.60 12.37,68.00             12.37,68.00 19.31,57.00 19.31,57.00             19.31,57.00 24.62,48.00 24.62,48.00             32.13,37.15 41.67,27.17 53.00,20.27             60.36,15.78 75.58,10.19 84.00,7.40             94.65,3.88 97.68,1.02 110.00,1.00             115.21,0.99 118.75,1.17 124.00,0.42 Z           M 221.00,174.00           C 221.00,174.00 231.32,143.00 231.32,143.00             231.81,139.52 232.60,133.31 231.32,130.00             229.81,125.62 215.14,111.30 211.17,107.01             211.17,107.01 168.00,66.91 168.00,66.91             168.00,66.91 148.00,46.00 148.00,46.00             148.00,46.00 128.00,28.03 128.00,28.03             126.08,26.21 120.10,20.39 117.83,19.77             115.76,19.20 110.69,20.71 108.00,21.14             108.00,21.14 101.00,21.14 101.00,21.14             93.59,22.85 81.71,27.45 75.00,31.00             79.06,36.66 98.67,54.21 104.96,60.17             104.96,60.17 116.00,71.96 116.00,71.96             116.00,71.96 140.00,93.17 140.00,93.17             140.00,93.17 151.00,103.83 151.00,103.83             151.00,103.83 165.00,115.09 165.00,115.09             181.14,130.05 205.43,162.85 221.00,174.00 Z           M 230.00,104.00           C 228.40,95.51 222.69,78.19 218.20,71.00             218.20,71.00 208.28,58.00 208.28,58.00             208.28,58.00 202.82,51.21 202.82,51.21             198.60,47.09 188.23,41.06 183.00,37.38             171.29,29.16 159.93,21.05 145.00,21.00             145.00,21.00 180.00,55.00 180.00,55.00             180.00,55.00 194.00,70.00 194.00,70.00             194.00,70.00 211.00,86.00 211.00,86.00             211.00,86.00 230.00,104.00 230.00,104.00 Z           M 57.83,44.45           C 53.40,44.73 52.21,46.97 49.00,49.84             38.58,59.13 40.74,57.83 33.94,69.00             32.07,72.07 28.61,76.22 30.13,80.00             31.63,83.76 40.67,91.25 43.96,94.28             43.96,94.28 58.00,108.99 58.00,108.99             58.00,108.99 67.72,117.32 67.72,117.32             67.72,117.32 95.01,145.99 95.01,145.99             95.01,145.99 114.00,163.09 114.00,163.09             114.00,163.09 134.00,182.96 134.00,182.96             134.00,182.96 144.91,192.41 144.91,192.41             144.91,192.41 164.96,211.72 164.96,211.72             166.74,213.35 171.16,218.11 173.04,218.76             175.83,219.71 180.35,216.79 183.00,215.59             190.50,212.16 196.75,206.01 202.28,199.96             203.73,198.38 207.19,194.88 207.83,193.00             209.22,188.98 203.54,184.54 201.00,182.00             201.00,182.00 174.00,156.00 174.00,156.00             174.00,156.00 159.00,142.00 159.00,142.00             159.00,142.00 136.99,119.01 136.99,119.01             136.99,119.01 127.00,109.96 127.00,109.96             127.00,109.96 115.91,98.17 115.91,98.17             115.91,98.17 92.00,75.91 92.00,75.91             92.00,75.91 83.00,67.29 83.00,67.29             83.00,67.29 73.28,59.00 73.28,59.00             69.71,55.51 61.38,46.54 57.83,44.45 Z           M 22.00,100.00           C 15.79,110.09 17.94,124.46 18.00,136.00             18.04,143.18 23.98,163.41 28.39,168.99             28.39,168.99 46.00,185.01 46.00,185.01             56.94,195.82 56.29,197.03 70.00,207.74             77.22,213.39 82.42,223.13 91.00,226.61             98.37,229.60 102.31,229.88 110.00,229.32             117.82,228.75 121.60,232.78 130.00,232.99             139.75,233.22 143.97,230.39 153.00,229.00             149.87,222.39 137.83,211.77 132.09,206.42             132.09,206.42 111.83,186.42 111.83,186.42             111.83,186.42 96.00,172.82 96.00,172.82             96.00,172.82 70.72,147.17 70.72,147.17             70.72,147.17 47.17,124.91 47.17,124.91             39.95,117.47 30.35,105.65 22.00,100.00 Z" /></svg>