<?xml version="1.0" encoding="UTF-8" standalone="no"?><svg xmlns="http://www.w3.org/2000/svg" viewBox="0 0 250 250"><path d="M 125.00,0.44           C 145.46,-2.18 168.31,5.33 186.00,15.14             186.00,15.14 198.00,21.75 198.00,21.75             213.64,32.24 230.56,49.90 238.68,67.00             238.68,67.00 243.86,81.00 243.86,81.00             246.96,90.02 249.99,99.40 250.00,109.00             250.00,109.00 250.00,117.00 250.00,117.00             250.00,117.00 248.27,132.00 248.27,132.00             248.41,145.27 246.01,148.99 243.51,161.00             243.51,161.00 242.19,168.00 242.19,168.00             242.19,168.00 238.96,175.00 238.96,175.00             238.96,175.00 237.08,181.00 237.08,181.00             237.08,181.00 231.45,190.00 231.45,190.00             228.47,195.00 226.25,200.31 222.40,204.83             222.40,204.83 216.21,210.46 216.21,210.46             216.21,210.46 210.79,216.24 210.79,216.24             200.19,225.40 184.91,234.34 172.00,239.71             157.42,245.77 146.02,249.92 130.00,250.00             130.00,250.00 116.00,250.00 116.00,250.00             101.42,249.83 91.05,245.57 78.00,239.86             63.02,233.30 52.15,227.07 40.17,215.57             35.95,211.52 34.09,207.62 30.57,203.28             26.79,198.62 22.89,194.13 19.71,189.00             17.11,184.80 6.45,161.78 5.04,157.00             5.04,157.00 3.41,149.00 3.41,149.00             1.20,140.20 0.02,139.84 0.00,130.00             0.00,130.00 0.00,115.00 0.00,115.00             0.01,107.22 1.79,102.46 3.63,95.00             5.12,88.92 6.32,82.80 8.78,77.00             11.07,71.61 14.15,66.93 17.21,62.00             20.78,56.24 24.25,50.34 28.53,45.04             39.17,31.83 59.11,16.73 75.00,10.46             75.00,10.46 84.00,7.78 84.00,7.78             95.01,4.28 95.93,0.87 108.00,1.00             118.40,1.12 112.88,2.67 125.00,0.44 Z" /></svg>