<svg xmlns="http://www.w3.org/2000/svg" viewBox="0 0 273.273 89.466" width="128" height="42"><path d="M101.315 25.135c0 2.476-.73 4.387-2.19 5.736s-3.534 2.023-6.221 2.023h-1.682v7.35h-5.986V18.089h7.668c2.798 0 4.9.611 6.304 1.833 1.405 1.223 2.107 2.961 2.107 5.213zm-10.092 2.88h1.091c.899 0 1.614-.252 2.145-.758.53-.505.795-1.202.795-2.091 0-1.495-.828-2.243-2.485-2.243h-1.546v5.092zm30.32 12.229l-1.091-4.152h-7.198l-1.121 4.152h-6.577l7.229-22.247h7.986l7.319 22.247h-6.547zm-2.334-9.062l-.955-3.637c-.222-.808-.493-1.854-.811-3.137-.318-1.283-.528-2.202-.629-2.758a63.224 63.224 0 01-.538 2.546c-.268 1.182-.861 3.511-1.781 6.986h4.714zm14.348 9.062V18.089h5.985V35.41h8.532v4.834h-14.517zm34.289 0h-13.153V18.089h13.153v4.804h-7.168v3.485h6.638v4.804h-6.638v4.182h7.168v4.88zm21.472-6.728c0 1.374-.349 2.594-1.046 3.66-.697 1.066-1.702 1.895-3.016 2.485-1.313.591-2.854.887-4.622.887-1.475 0-2.713-.104-3.713-.311-1-.207-2.041-.568-3.121-1.083V33.82a17.863 17.863 0 003.561 1.372c1.232.328 2.364.492 3.395.492.89 0 1.541-.154 1.955-.462s.621-.705.621-1.19c0-.303-.083-.568-.25-.795-.166-.228-.435-.457-.803-.689-.369-.232-1.352-.707-2.947-1.425-1.445-.656-2.528-1.293-3.251-1.909s-1.258-1.323-1.606-2.122c-.349-.798-.522-1.743-.522-2.834 0-2.041.742-3.632 2.228-4.773s3.525-1.712 6.122-1.712c2.293 0 4.632.53 7.017 1.591l-1.834 4.622c-2.071-.949-3.859-1.424-5.364-1.424-.778 0-1.344.136-1.697.409s-.53.611-.53 1.015c0 .435.225.824.674 1.167.45.344 1.67.97 3.66 1.879 1.909.859 3.235 1.78 3.978 2.766.74.982 1.111 2.223 1.111 3.718zm16.271 6.728h-5.986V22.983h-5.41v-4.895h16.791v4.895h-5.395v17.261zm11.666 0V18.089h6.016v22.155h-6.016zm34.973 0h-7.85l-8.093-15.609h-.137c.192 2.455.288 4.329.288 5.622v9.987h-5.304V18.089h7.819l8.062 15.396h.091c-.142-2.232-.212-4.026-.212-5.38V18.089h5.334v22.155zm21.045 0H260.12V18.089h13.153v4.804h-7.168v3.485h6.638v4.804h-6.638v4.182h7.168v4.88zM85.237 66.749V44.593h5.986v17.321h8.532v4.834H85.237zm34.29 0h-13.154V44.593h13.154v4.804h-7.168v3.485h6.638v4.804h-6.638v4.183h7.168v4.88zm15.879-12.972h9.562v11.941c-2.597.889-5.451 1.333-8.562 1.333-3.415 0-6.054-.989-7.918-2.97-1.864-1.98-2.796-4.804-2.796-8.472 0-3.576 1.02-6.359 3.061-8.35 2.041-1.99 4.9-2.985 8.578-2.985 1.394 0 2.71.131 3.947.394s2.316.596 3.235 1l-1.895 4.698c-1.596-.788-3.349-1.182-5.258-1.182-1.748 0-3.099.568-4.054 1.704-.955 1.137-1.432 2.761-1.432 4.872 0 2.071.432 3.65 1.296 4.736s2.109 1.629 3.735 1.629c.889 0 1.707-.086 2.455-.258v-3.47h-3.955v-4.62zm30.743 12.972l-1.091-4.152h-7.198l-1.121 4.152h-6.577l7.229-22.247h7.986l7.319 22.247h-6.547zm-2.333-9.063l-.955-3.637c-.223-.809-.492-1.854-.811-3.137s-.528-2.202-.629-2.759a62.852 62.852 0 01-.538 2.546c-.268 1.183-.861 3.512-1.78 6.986h4.713zm14.348 9.063V44.593h5.985v17.321h8.532v4.834h-14.517z" id="Text" fill="currentColor"/><g fill="currentColor" id="Icon"><path d="M0 0v89.466h88.148zm67.895 24.042v36.072l6.599 6.697v-49.13H26.088l6.268 6.361z"/><path d="M61.787 53.914v-23.61H38.525l6.27 6.363h10.393v10.549z"/></g></svg>