<?xml version="1.0" encoding="UTF-8" standalone="no"?><svg viewBox="0 0 4.8186874 4.0505981" xmlns="http://www.w3.org/2000/svg"><g transform="translate(-99.966669,-217.54725)"><path fill="currentColor" d="m 102.00153,217.54744 c -0.77027,0.0111 -2.099179,1.0502 -2.032438,2.56316 0.03317,1.061 0.587148,1.48024 1.194238,1.48724 0,0 0.90262,-0.109 0.89762,-0.91415 -0.0476,-0.98607 -1.01285,-0.91571 -1.01285,-0.91571 0,0 -0.1601,-1.08951 0.98288,-1.52962 l 0.007,-0.69092 c -0.0119,-3.4e-4 -0.0245,-1.7e-4 -0.0367,0 z m 2.72489,0 c -0.77027,0.0111 -2.09917,1.05072 -2.03243,2.56367 0.0332,1.06101 0.58715,1.47973 1.19424,1.48673 0,0 0.90211,-0.109 0.89711,-0.91415 -0.0476,-0.98607 -1.01235,-0.91571 -1.01235,-0.91571 0,0 -0.16061,-1.08951 0.98237,-1.52962 l 0.007,-0.6904 c -0.0119,-3.4e-4 -0.0239,-6.9e-4 -0.0362,-5.2e-4 z" /></g></svg>