<?xml version="1.0" encoding="UTF-8" standalone="no"?>
<svg width="100" height="100" viewBox="0 0 26.458333 26.458333"
  xmlns="http://www.w3.org/2000/svg">
  <g>
    <path d="m 24.871278,19.988301 c -0.850256,0.637692 -1.467855,1.873948 -2.556056,2.881776 -1.035325,0.958125 -2.322342,1.581012 -3.577633,2.192265 -1.363159,0.663073 -2.897639,1.35893 -4.441637,1.376908 -1.318743,0.0148 -2.715744,0.07508 -4.018624,-0.139595 -0.810069,-0.134307 -1.571493,-0.467429 -2.326571,-0.769883 0,0 -1.163286,-0.473775 -1.163286,-0.473775 0,0 -0.740273,-0.525594 -0.740273,-0.525594 0,0 -0.740273,-0.471659 -0.740273,-0.471659 C 4.718937,23.61881 4.518006,23.34914 4.033656,22.843639 3.476336,22.260938 2.791055,21.495285 2.335258,20.834327 1.899555,20.20298 1.899555,20.102514 1.602388,19.459534 0.85154001,17.833049 0.46765601,16.922514 0.20221601,15.123651 c -0.08143,-0.554147 -0.175551,-0.90419 -0.182954,-1.480546 -0.0190399951,-1.660326 0.124789,-1.098776 0.286591,-2.326571 0.04865,-0.366965 0.0095,-0.575298 0.113156,-0.95178 0,0 0.470602,-1.2690395 0.470602,-1.2690395 C 1.072565,8.5108995 1.406745,7.3856845 1.672185,6.8748965 c 0,0 1.44459,-2.115066 1.44459,-2.115066 0.504443,-0.639807 1.337779,-1.549285 1.978644,-2.03575 1.536595,-1.166459 3.931906,-2.01565697 5.816429,-2.40588697 1.021576,-0.212564 0.886212,-0.32995 2.009312,-0.31726000257 0,0 2.009312,0.13748000257 2.009312,0.13748000257 0,0 1.163286,0.297166 1.163286,0.297166 1.29442,0.323605 2.570861,0.74027297 3.701364,1.47948797 0,0 1.057532,0.764596 1.057532,0.764596 1.406519,0.953895 2.369931,1.623313 3.391507,3.031947 0.336296,0.463199 0.412438,0.782574 0.668361,1.269039 0,0 0.694799,1.269039 0.694799,1.269039 0.600679,1.3494114 0.867177,3.3893925 0.850256,4.8646505 -0.01375,1.156941 -0.518191,3.623106 -0.867176,4.758897 -0.211507,0.688453 -0.757194,1.426611 -0.719123,2.115065 z M 13.555679,8.5669485 c 0,0 0.07826,-0.95178 0.07826,-0.95178 0,0 -0.174492,-1.057532 -0.174492,-1.057532 0,0 -0.09729,-2.749585 -0.09729,-2.749585 -0.06345,-0.665188 0.142767,-1.224623 -0.550975,-1.627543 -0.468487,-0.289764 -0.883039,-0.06239 -1.370562,0 0,0 -2.21976,0.384942 -2.21976,0.384942 -0.555205,0.203046 -0.689512,0.465314 -1.270097,0.713834 0,0 2.326571,2.330803 2.326571,2.330803 0,0 1.172804,1.260578 1.172804,1.260578 0,0 2.105547,1.696283 2.105547,1.696283 z m -0.105753,9.7293005 c 0,0 0.105753,-1.797806 0.105753,-1.797806 0,0 -0.105753,-1.480545 -0.105753,-1.480545 0,0 0,-2.643832 0,-2.643832 -0.0021,-1.112524 -0.508673,-1.456223 -1.269039,-2.220818 0,0 -1.374792,-1.3441245 -1.374792,-1.3441245 0,0 -1.692052,-1.414979 -1.692052,-1.414979 0,0 -0.95178,-0.91265 -0.95178,-0.91265 0,0 -1.237313,-1.096662 -1.237313,-1.096662 -0.272843,-0.296109 -0.537227,-0.850257 -0.984563,-0.696914 -0.767768,0.262268 -1.829531,1.918364 -2.287443,2.609991 -0.17132,0.258037 -0.512903,0.732869 -0.417725,1.053302 0.09095,0.308799 0.656728,0.665188 0.90842,0.8819824 0.495983,0.427244 0.905248,0.9528371 1.330376,1.4488201 0.393402,0.458969 1.069166,1.169631 1.524962,1.552458 0,0 0.740273,0.581643 0.740273,0.581643 0,0 1.345182,1.29442 1.345182,1.29442 1.136847,1.119927 3.152504,3.328055 4.365494,4.185714 z M 2.451587,10.364754 c -0.617599,1.336721 -0.470602,4.070443 -0.142767,5.49917 0.111041,0.485407 0.260153,1.301823 0.528767,1.692052 0.7371,1.070223 2.697765,2.527503 3.738377,3.42852 0,0 2.648062,2.742183 2.648062,2.742183 0.950722,0.694798 3.168368,0.809012 4.331653,0.809012 0,0 0,-1.797805 0,-1.797805 -10e-4,-0.265441 -0.03067,-1.287018 -0.117386,-1.480546 -0.184011,-0.416668 -0.989851,-1.069166 -1.363159,-1.362102 0,0 -1.903559,-1.616967 -1.903559,-1.616967 0,0 -0.769884,-0.81007 -0.769884,-0.81007 0,0 -1.55563,-1.498524 -1.55563,-1.498524 0,0 -1.481603,-1.585242 -1.481603,-1.585242 -1.05436,-1.028979 -3.125009,-2.919847 -3.912871,-4.019681 z" id="bubble-pending-4" />
    <path d="m 10.908684,6.7252743e-4 c 0,0 2.856053,0 2.856053,0 C 15.328161,-0.02153747 16.884181,0.51053053 18.313265,1.0923185 c 0,0 1.480916,0.610349 1.480916,0.610349 1.037699,0.557459 1.794024,1.289455 2.644493,2.072225 0,0 0.815562,0.678048 0.815562,0.678048 0.381864,0.36494 1.144536,1.405812 1.422737,1.870186 0,0 0.539476,1.163576 0.539476,1.163576 0,0 0.564864,1.057798 0.564864,1.057798 0.271854,0.7182444 0.190404,0.8462374 0.30253,1.4809165 0.157612,0.889607 0.373402,1.389945 0.37446,2.327153 0.0042,2.645551 -0.434754,5.055213 -1.725267,7.404581 -0.687568,1.252432 -2.630741,3.420916 -3.775278,4.237536 -0.367056,0.262333 -0.671701,0.356477 -1.057797,0.569094 0,0 -1.904035,0.990099 -1.904035,0.990099 -1.154057,0.482355 -3.402934,0.882203 -4.654308,0.867393 -0.703435,-0.0085 -0.626216,-0.09414 -1.057797,-0.132224 0,0 -0.952017,0 -0.952017,0 0,0 -2.009815,-0.423119 -2.009815,-0.423119 C 8.598456,25.689278 8.267365,25.721012 7.523734,25.339147 7.085806,25.113836 6.753658,24.836693 6.360157,24.556377 c 0,0 -0.740458,-0.4612 -0.740458,-0.4612 -0.588135,-0.407252 -1.018659,-0.958364 -1.510534,-1.463991 0,0 -0.776424,-0.759499 -0.776424,-0.759499 0,0 -0.895954,-1.374078 -0.895954,-1.374078 0,0 -0.72036,-0.952017 -0.72036,-0.952017 C 1.39803,19.062178 0.69776905,17.477598 0.53275205,16.901098 -0.12413999,14.604621 0.01020001,13.705493 0.01337401,11.400553 c 0.0021,-1.327536 0.359651,-1.4999571 0.74574704,-2.6444935 0,0 0.20521296,-0.846238 0.20521296,-0.846238 C 1.137812,7.4549695 2.383897,5.3393745 2.698063,4.9479895 c 0,0 0.877972,-0.952017 0.877972,-0.952017 0,0 0.581788,-0.706609 0.581788,-0.706609 C 6.012142,1.5249575 8.44296,0.55813153 10.908684,6.7252743e-4 Z M 13.764737,1.8803775 c 0,0 -0.846238,0 -0.846238,0 0,0 0.846238,0.846238 0.846238,0.846238 0,0 0,-0.846238 0,-0.846238 z m 0.10578,10.5779725 c 0,0 -0.10578,-1.692475 -0.10578,-1.692475 0,0 0,-3.7022915 0,-3.7022915 0,0 -0.07087,-1.251374 -0.07087,-1.251374 -0.106838,-0.293009 -0.53313,-0.553227 -0.765845,-0.776423 -0.830371,-0.799694 -0.521494,-0.824024 -1.806718,-1.795082 -0.296183,-0.224253 -0.809215,-0.849411 -1.076837,-0.886434 -0.2485821,-0.03491 -0.794406,0.193577 -1.039815,0.286663 -0.869508,0.331091 -1.545442,0.609292 -2.265801,1.225987 -0.212617,0.181941 -0.66747,0.486587 -0.705551,0.767961 -0.07087,0.517263 1.304264,1.489379 1.672378,1.899804 0,0 1.294743,1.273588 1.294743,1.273588 0,0 1.29157,1.4587024 1.29157,1.4587024 0,0 1.251374,1.0853001 1.251374,1.0853001 0.626216,0.582846 1.667089,1.633239 2.327155,2.106074 z m 0,8.779717 c 0,0 0,-2.432934 0,-2.432934 0,0 0.105779,-1.798255 0.105779,-1.798255 0.001,-0.370229 0.03808,-1.28205 -0.07828,-1.586695 -0.172421,-0.450622 -0.822966,-0.996445 -1.191079,-1.313785 0,0 -2.221374,-1.891341 -2.221374,-1.891341 0,0 -0.8642214,-0.875856 -0.8642214,-0.875856 0,0 -2.4763026,-2.4012005 -2.4763026,-2.4012005 -0.700261,-0.711898 -2.080687,-2.370524 -2.90048,-2.720654 0,0 -1.454471,2.538713 -1.454471,2.538713 -0.155496,0.309935 -0.417829,0.8113304 -0.363882,1.1635774 0.06664,0.4336971 0.556402,0.7859431 0.866336,1.0630861 0,0 2.221374,1.902977 2.221374,1.902977 0.339553,0.323686 0.821909,0.802868 1.114919,1.159346 0,0 0.808156,1.039815 0.808156,1.039815 0,0 1.461876,1.213293 1.461876,1.213293 0,0 1.682955,1.660742 1.682955,1.660742 0,0 0.781713,0.952017 0.781713,0.952017 0.592366,0.690742 1.754885,1.822585 2.506979,2.327154 z M 2.031651,12.66991 c -0.198866,0.481297 -0.05078,0.78277 0,1.269356 0,0 0,1.163578 0,1.163578 0,0 0.541592,1.586695 0.541592,1.586695 0.389269,1.319073 0.203097,1.58458 1.09482,2.961832 1.69988,2.627568 5.683544,4.754799 8.827317,4.760088 0,0 1.480916,0 1.480916,0 -0.736227,-1.159346 -1.838451,-1.906151 -2.846532,-2.798932 0,0 -1.719978,-1.821527 -1.719978,-1.821527 0,0 -2.309171,-1.955867 -2.309171,-1.955867 0,0 -2.160022,-2.181177 -2.160022,-2.181177 0,0 -0.678048,-0.573326 -0.678048,-0.573326 0,0 -1.136074,-1.170982 -1.136074,-1.170982 0,0 -1.09482,-1.239738 -1.09482,-1.239738 z" id="bubble-pending-3" />
    <path d="m 11.425596,1.8952743e-4 c 0,0 2.207561,0 2.207561,0 C 16.461989,-0.01768047 20.202228,1.2322185 22.32464,3.1170555 c 0,0 0.578171,0.637039 0.578171,0.637039 0,0 0.57817,0.55189 0.57817,0.55189 0.473049,0.511944 1.295103,1.862761 1.61152,2.505057 0,0 0.41418,1.156341 0.41418,1.156341 0.928227,2.5397465 0.955559,3.6782175 0.951354,6.3073175 -0.0021,1.522166 -0.18081,2.074056 -0.679088,3.469024 -0.206039,0.578171 -0.399463,1.145829 -0.709573,1.681951 0,0 -1.315075,1.787073 -1.315075,1.787073 -0.701164,0.95661 -1.30141,1.77551 -2.246457,2.521876 -0.743212,0.58658 -1.584188,0.93138 -2.408343,1.383405 -1.014427,0.556095 -3.360749,1.232029 -4.520244,1.245695 0,0 -1.05122,0 -1.05122,0 0,0 -1.261463,0.09461 -1.261463,0.09461 0,0 -3.258781,-0.581325 -3.258781,-0.581325 0,0 -1.681951,-0.736904 -1.681951,-0.736904 0,0 -0.946098,-0.634937 -0.946098,-0.634937 C 3.732771,22.815858 1.640845,20.223551 0.66110805,17.218114 0.45506901,16.587383 0.17859801,14.243163 0.17754701,13.538846 c 0,0 0,-2.207561 0,-2.207561 0.0021,-1.080653 0.60340004,-2.5849485 1.04806599,-3.5741465 0,0 0.427846,-1.156341 0.427846,-1.156341 0.791568,-1.513757 2.489288,-3.494254 3.885307,-4.473991 0.889332,-0.624424 1.276181,-0.676985 2.207561,-1.040707 0,0 0.946098,-0.42994897 0.946098,-0.42994897 0.8714606,-0.352158 1.8102,-0.494073 2.733171,-0.65596100257 z M 13.528035,1.8703095 c -1.035451,0.186065 -1.208902,0.01892 -1.576829,0.0841 0,0 -1.05122,0.314315 -1.05122,0.314315 -0.510892,0.111429 -0.850436,0.09251 -1.2614634,0.442564 0,0 3.7843904,3.574146 3.7843904,3.574146 0,0 0.105122,-1.997317 0.105122,-1.997317 0,0 0,-2.417805 0,-2.417805 z m -5.781708,1.576829 c -1.839634,1.111139 -1.280385,0.680139 -2.737375,2.207561 -0.484612,0.50879 -0.680139,0.632834 -1.047015,1.261463 0,0 0.949251,0.941893 0.949251,0.941893 0,0 1.2499,1.170007 1.2499,1.170007 0,0 0.954508,1.0375545 0.954508,1.0375545 0,0 3.24091,2.860368 3.24091,2.860368 0,0 3.171529,3.135788 3.171529,3.135788 0,0 0,-6.2021951 0,-6.2021951 0,0 -0.06307,-0.7316494 -0.06307,-0.7316494 0,0 -1.513756,-1.480117 -1.513756,-1.480117 0,0 -1.9994201,-2.080363 -1.9994201,-2.080363 0,0 -2.2054589,-2.12031 -2.2054589,-2.12031 z m 5.676586,21.0243905 c 0,0 0,-2.417805 0,-2.417805 0,0 0.105122,-1.471708 0.105122,-1.471708 0,0 -0.05992,-1.54319 -0.05992,-1.54319 0,0 -0.601298,-0.673831 -0.601298,-0.673831 0,0 -1.857504,-1.676695 -1.857504,-1.676695 0,0 -2.106645,-2.199151 -2.106645,-2.199151 0,0 -1.261463,-1.064886 -1.261463,-1.064886 0,0 -1.185776,-1.221517 -1.185776,-1.221517 0,0 -0.916664,-0.784209 -0.916664,-0.784209 0,0 -0.901946,-0.840976 -0.901946,-0.840976 0,0 -1.726102,-1.7692025 -1.726102,-1.7692025 -0.521405,1.1048314 -0.725342,3.5636345 -0.823105,4.8356095 -0.07464,0.980788 1.0344,1.606264 1.66408,2.211766 0,0 1.060681,1.152136 1.060681,1.152136 0,0 1.777612,1.787074 1.777612,1.787074 0,0 2.207561,2.006777 2.207561,2.006777 0,0 2.628049,2.600717 2.628049,2.600717 0.693805,0.624425 1.028093,1.021786 1.997318,1.069091 z M 3.01584,17.53348 c 0,0 -0.105122,0 -0.105122,0 0,0 0.105122,0.105122 0.105122,0.105122 0,0 0,-0.105122 0,-0.105122 z m 0.105121,0.105122 c -0.180809,0.669627 0.495125,1.489578 0.867257,1.997317 1.006017,1.374995 2.045673,2.322144 3.547865,3.145249 0.500381,0.274368 0.799978,0.523507 1.366586,0.639141 0,0 -2.207561,-2.173922 -2.207561,-2.173922 0,0 -0.839924,-0.673831 -0.839924,-0.673831 0,0 -1.385508,-1.567369 -1.385508,-1.567369 0,0 -1.348715,-1.366585 -1.348715,-1.366585 z m 5.88683,5.781707 c 0,0 -0.105122,0 -0.105122,0 0,0 0.105122,0.105122 0.105122,0.105122 0,0 0,-0.105122 0,-0.105122 z" id="bubble-pending-2" />
    <path d="m 24.765285,19.993206 c -0.83186,0.687924 -1.243556,1.728278 -1.984398,2.499812 0,0 -1.181114,0.853026 -1.181114,0.853026 0,0 -0.654057,0.628657 -0.654057,0.628657 -0.734492,0.612782 -1.839405,1.253082 -2.742173,1.581169 -0.980028,0.356662 -2.139975,0.573623 -3.175037,0.697449 C 14.18818,26.35492 13.918302,26.458638 13.01765,26.449113 11.73811,26.434293 9.7748786,26.003549 8.572599,25.55587 7.42641,25.129356 6.021986,24.183195 5.080058,23.40637 2.449011,21.235703 0.84032601,18.818442 0.23812801,15.44232 0.13229301,14.849647 0.00740801,14.581885 1.4888057e-8,13.960636 c 0,0 0,-1.587518 0,-1.587518 C 0.00210001,11.291489 0.32173701,10.41412 0.66675805,9.4097509 c 0,0 0.29316096,-1.0583464 0.29316096,-1.0583464 C 1.226623,7.7121645 2.516746,5.5287975 2.942201,4.9826915 c 0.200027,-0.258237 1.75897,-1.750504 2.032023,-1.94524 0,0 0.952511,-0.565156 0.952511,-0.565156 0,0 0.952511,-0.645591 0.952511,-0.645591 1.308115,-0.7292 3.17927,-1.42029897 4.65672,-1.68171097 0,0 1.799188,-0.1449930025687 1.799188,-0.1449930025687 0,0 1.076337,0 1.076337,0 C 14.88563,0.01693053 15.105765,0.11959353 15.557679,0.18838553 c 3.305213,0.498481 5.927793,2.04578197 8.118568,4.56464397 0.754601,0.866785 1.597044,2.393978 1.946298,3.492541 0,0 0.205319,0.846676 0.205319,0.846676 0.189444,0.6625244 0.405346,1.3239905 0.494247,2.0108575 0,0 0.06668,1.587518 0.06668,1.587518 0,0.25612 -0.03704,0.353487 0,0.635007 0,0 0.06879,0.846677 0.06879,0.846677 0.01058,0.472021 -0.09208,1.444641 -0.19156,1.905022 0,0 -0.951453,2.751697 -0.951453,2.751697 -0.234953,0.52494 -0.508006,0.555632 -0.549281,1.164181 z M 13.546823,8.8805775 c 0,0 0,-5.080058 0,-5.080058 0,-0.213786 0.0127,-0.540815 -0.0635,-0.736609 -0.09419,-0.244478 -0.276229,-0.393704 -0.467789,-0.561981 -0.184152,-0.161927 -0.400055,-0.353488 -0.632891,-0.437097 -0.72285,-0.261411 -1.946297,0.19156 -2.6458634,0.371479 -0.3831206,0.09737 -1.6721856,0.462497 -1.6721856,0.950394 0,0.291045 1.098562,1.217098 1.354682,1.442525 0,0 2.856474,2.781332 2.856474,2.781332 0.487898,0.500598 0.687925,0.848793 1.271073,1.270015 z M 6.138404,4.5413605 c 0,0 -0.657233,0.670992 -0.657233,0.670992 -0.941927,0.868901 -2.156908,1.79707 -2.411969,3.139052 0.841385,0.527056 2.153733,1.7124035 2.853299,2.4341955 0,0 1.380083,1.47745 1.380083,1.47745 0,0 2.4913459,2.468062 2.4913459,2.468062 0,0 1.0011941,1.133488 1.0011941,1.133488 0.85726,0.845618 1.806596,1.571643 2.54003,2.541087 0.324912,-0.558806 0.162985,-0.88266 0.184152,-1.481684 0,0 0.05503,-2.645863 0.05503,-2.645863 0.01799,-0.508006 -0.04974,-2.224642 -0.223311,-2.645864 -0.190502,-0.461438 -1.609744,-1.8055371 -2.026732,-2.2225251 0,0 -1.4816831,-1.3800834 -1.4816831,-1.3800834 0,0 -1.3758499,-1.353624 -1.3758499,-1.353624 0,0 -2.32836,-2.134683 -2.32836,-2.134683 z M 2.434195,10.468096 c -0.440272,0.518589 -0.420163,1.256256 -0.423339,1.905022 0,0 -0.06244,1.16418 -0.06244,1.16418 0,0 0.183094,0.922877 0.183094,0.922877 0,0 0,0.770476 0,0.770476 0.05398,0.59479 0.352429,1.603393 0.643474,2.116691 0.311153,0.549281 0.800109,0.868902 1.242497,1.288006 0,0 0.957803,1.040354 0.957803,1.040354 0,0 1.163122,1.067871 1.163122,1.067871 0,0 3.175036,3.075551 3.175036,3.075551 0.785293,0.476256 3.073436,0.724967 4.021714,0.724967 0,0 0,-2.751698 0,-2.751698 -0.01482,-0.785293 -0.433922,-1.14513 -0.956745,-1.693353 0,0 -0.966269,-1.040354 -0.966269,-1.040354 0,0 -1.039296,-0.970502 -1.039296,-0.970502 0,0 -0.8572604,-0.934519 -0.8572604,-0.934519 0,0 -2.2129996,-2.033082 -2.2129996,-2.033082 0,0 -2.010856,-1.997098 -2.010856,-1.997098 0,0 -2.857533,-2.655389 -2.857533,-2.655389 z" id="bubble-pending-1" />
    <path d="m 13.233746,0.05570953 c 2.164601,-0.277187 4.582055,0.517346 6.453599,1.55521097 0,0 1.26956,0.699317 1.26956,0.699317 1.65466,1.109807 3.444741,2.978176 4.30381,4.7873 0,0 0.548027,1.481154 0.548027,1.481154 0.32797,0.9542864 0.648533,1.9466595 0.649591,2.9623075 0,0 0,0.846374 0,0.846374 0,0 -0.183028,1.586951 -0.183028,1.586951 0.01481,1.403922 -0.2391,1.797485 -0.503592,3.068104 0,0 -0.139652,0.740577 -0.139652,0.740577 0,0 -0.341723,0.740576 -0.341723,0.740576 0,0 -0.198898,0.634781 -0.198898,0.634781 0,0 -0.595635,0.95217 -0.595635,0.95217 -0.315274,0.528983 -0.550143,1.090764 -0.95746,1.568965 0,0 -0.654882,0.595635 -0.654882,0.595635 0,0 -0.573418,0.611505 -0.573418,0.611505 -1.121445,0.969098 -2.738019,1.91492 -4.103854,2.483049 -1.542516,0.641128 -2.748598,1.080184 -4.443461,1.088648 0,0 -1.481154,0 -1.481154,0 C 10.73906,26.440344 9.6419476,25.989654 8.261301,25.385555 6.676467,24.691529 5.526457,24.032415 4.259012,22.815753 3.81255,22.387277 3.615768,21.97467 3.243364,21.515512 2.843452,21.0225 2.430845,20.547472 2.094412,20.004735 1.81934,19.560389 0.69154805,17.124949 0.54237405,16.619241 c 0,0 -0.17244804,-0.846374 -0.17244804,-0.846374 -0.233811,-0.931011 -0.358651,-0.969098 -0.360767,-2.010137 0,0 0,-1.58695 0,-1.58695 10e-4,-0.823099 0.189376,-1.326691 0.384042,-2.115934 C 0.55083805,9.4166019 0.67779405,8.7691255 0.93805401,8.1555045 1.180328,7.5852605 1.506182,7.0901315 1.82992,6.5685545 c 0.377694,-0.609389 0.744809,-1.23359 1.197619,-1.794313 1.125677,-1.397574 3.235263,-2.995104 4.916372,-3.658449 0,0 0.952171,-0.28353497 0.952171,-0.28353497 1.164821,-0.370289 1.262154,-0.731056 2.53912,-0.717302 1.100286,0.0127 0.516288,0.176681 1.798544,-0.05925 z" id="bubble-ineffect-4" />
    <path d="m 13.394662,0.05827653 c 1.344394,-0.166469 1.997626,0.04952 3.26616,0.322402 0.472013,0.101145 0.554194,0.05268 1.053601,0.268667 0,0 2.423279,1.41498597 2.423279,1.41498597 0.561569,0.356116 1.529828,0.996705 1.999733,1.436056 0.419333,0.39194 0.468853,0.571052 0.778611,0.919793 0.461477,0.521532 0.977741,1.010403 1.363358,1.598312 0,0 0.831291,1.68576 0.831291,1.68576 0.114842,0.365599 0.04847,0.467798 0.242328,0.94824 0,0 0.568944,1.2643204 0.568944,1.2643204 0,0 0.186487,1.1589601 0.186487,1.1589601 0.16963,0.799682 0.366653,0.983009 0.348742,1.89648 -0.06638,3.414718 -1.547739,7.455274 -4.116416,9.764765 -0.724877,0.652179 -2.570784,1.94916 -3.467398,2.31476 0,0 -0.94824,0.281311 -0.94824,0.281311 -1.807977,0.686947 -2.115629,1.122084 -4.2144,1.125245 0,0 -1.36968,0 -1.36968,0 -1.615169,-0.01896 -2.4675311,-0.392993 -3.89832,-1.00092 -0.718555,-0.305545 -2.131433,-0.949294 -2.73936,-1.383377 0,0 -0.84288,-0.730145 -0.84288,-0.730145 0,0 -0.823915,-0.69643 -0.823915,-0.69643 0,0 -1.905963,-2.616089 -1.905963,-2.616089 0,0 -0.349795,-0.73752 -0.349795,-0.73752 -0.521532,-1.071511 -0.99670595,-2.100878 -1.29487499,-3.26616 -0.601606,-2.346367 -0.490977,-4.990903 0.338206,-7.2698405 0,0 0.46779799,-1.0536 0.46779799,-1.0536 0,0 0.583695,-1.36968 0.583695,-1.36968 0.328723,-0.594231 1.465557,-2.166202 1.940731,-2.615036 0.276043,-0.260239 0.53839,-0.406689 0.833398,-0.625838 0,0 0.73752,-0.584748 0.73752,-0.584748 0.679572,-0.453048 2.568677,-1.333858 3.37152,-1.62043697 1.0557069,-0.377189 1.705778,-0.782825 2.84472,-0.770182 1.083101,0.01264 0.514157,0.148558 1.79112,-0.06005 z" id="bubble-ineffect-3" />
    <path d="m 11.662852,0.08323053 c 1.590781,-0.248724 4.945921,0.08679 6.456263,0.650919 0.559896,0.208505 2.80477,1.51563397 3.281052,1.89030897 0.594823,0.466756 1.94958,1.862791 2.387759,2.485132 0,0 0.777927,1.270085 0.777927,1.270085 0.975848,1.577022 1.911477,3.8388305 1.889251,5.7153805 0,0 0,1.587606 0,1.587606 0.03599,1.064754 -0.234966,2.046953 -0.502742,3.069371 0,0 -0.192629,0.952564 -0.192629,0.952564 0,0 -0.446647,0.846723 -0.446647,0.846723 -0.34504,0.683729 -0.681612,1.380158 -1.120849,2.010967 -1.026652,1.477532 -3.013276,3.32868 -4.591356,4.200805 -1.254209,0.693254 -2.913786,1.389684 -4.339456,1.60454 0,0 -2.96353,0 -2.96353,0 -0.79592,0.0064 -1.564321,-0.19263 -2.3284891,-0.39161 0,0 -1.3759249,-0.320696 -1.3759249,-0.320696 -1.082747,-0.395843 -3.155101,-1.634175 -4.012408,-2.38035 0,0 -0.654094,-0.682671 -0.654094,-0.682671 C 3.569239,22.254675 3.18398,22.081096 2.867517,21.694779 1.956231,20.583455 1.582615,19.535635 1.08834,18.233798 c 0,0 -0.54931195,-1.375924 -0.54931195,-1.375924 0,0 -0.15029304,-0.952564 -0.15029304,-0.952564 0,0 -0.252958,-0.952563 -0.252958,-0.952563 -0.13653499511,-0.723948 -0.179929,-2.658711 -0.08467,-3.386893 0,0 0.368325,-1.5876051 0.368325,-1.5876051 C 0.62687905,9.1251745 0.74012805,8.4647305 1.111628,7.6497595 1.447142,6.9131105 1.58791,6.9226365 1.921307,6.3796755 c 0.673145,-1.093331 1.345231,-2.177137 2.336956,-3.019626 0,0 1.05417,-0.756759 1.05417,-0.756759 0.549311,-0.41807 1.28596,-1.071105 1.905127,-1.354757 1.190703,-0.54507797 3.119115,-0.83719697 4.445295,-1.16530297 z" id="bubble-ineffect-2" />
    <path d="m 13.235674,0.00153053 c 0,0 1.694472,0 1.694472,0 1.140591,-0.02012 1.137412,0.159916 2.118091,0.440563 0,0 0.635428,0.138735 0.635428,0.138735 0,0 0.95314,0.43209097 0.95314,0.43209097 0,0 0.847234,0.355839 0.847234,0.355839 0.971145,0.512578 2.961093,2.209169 3.657945,3.058523 0.532702,0.650253 0.876889,1.295215 1.28992,2.012189 0.379134,0.658723 0.740269,1.020919 1.038923,1.800375 0.261583,0.678849 0.196979,1.0897574 0.326187,1.5885694 0,0 0.655549,1.6944751 0.655549,1.6944751 0,0 0,1.588564 0,1.588564 0.0307,1.368288 -0.05296,2.276951 -0.449039,3.600758 0,0 -0.294413,0.847234 -0.294413,0.847234 -0.221342,0.76569 -0.367488,1.296271 -0.773104,2.012189 0,0 -0.974321,1.376758 -0.974321,1.376758 -0.299709,0.416204 -0.53588,0.883246 -0.895954,1.252851 -0.779456,0.800639 -1.368288,0.99868 -2.204931,1.563151 -1.314276,0.888542 -2.804353,1.82156 -4.342087,2.263182 -1.38841,0.398199 -3.114655,0.444799 -4.553895,0.427852 -1.400062,-0.01693 -3.000278,-0.624836 -4.236185,-1.244377 -1.854387,-0.929841 -2.799054,-1.76331 -4.15993,-3.309518 0,0 -0.839824,-0.953141 -0.839824,-0.953141 0,0 -0.501986,-0.847238 -0.501986,-0.847238 0,0 -0.479747,-0.74133 -0.479747,-0.74133 C 1.429434,18.745578 1.384952,18.373853 1.17738,17.771256 0.30366901,15.228489 0.20517401,14.963727 0.20941301,12.26422 c 0.002,-1.044218 0.128142,-0.871594 0.31771404,-1.800379 0,0 0.216045,-1.2708545 0.216045,-1.2708545 0,0 0.65554895,-1.588569 0.65554895,-1.588569 C 2.449292,5.3041705 3.225574,4.5522485 5.186925,2.9965115 6.1909,2.1990495 6.006627,2.1164445 7.305017,1.4894895 9.208122,0.57023853 11.186419,0.35948753 13.235674,0.00153053 Z" id="bubble-ineffect-1" />
    <path d="m 11.84908,0.00287853 c 0,0 2.644875,0 2.644875,0 1.087572,-0.02116 0.796636,0.07511 1.69272,0.263429 0.982835,0.207358 2.138116,0.440107 3.068054,0.81885297 0.906663,0.369225 2.764422,1.566824 3.469017,2.238622 0.943691,0.900315 2.218521,2.947448 2.706236,4.167264 0,0 0.32479,1.163745 0.32479,1.163745 0.826259,2.8056825 0.698247,3.6203045 0.694015,6.4534945 -10e-4,0.576582 -0.218995,2.018567 -0.422122,2.539079 0,0 -0.512048,0.952154 -0.512048,0.952154 0,0 -0.619958,1.375335 -0.619958,1.375335 -0.238039,0.360761 -1.9297,2.199477 -2.264012,2.485124 -0.676031,0.576583 -1.468435,0.966966 -2.212174,1.43987 0,0 -0.846359,0.610436 -0.846359,0.610436 0,0 -1.375335,0.507816 -1.375335,0.507816 -0.950039,0.431644 -1.706473,0.952155 -2.750669,1.242034 -0.753261,0.208416 -1.553071,0.176677 -2.32749,0.168213 C 11.380409,26.407187 10.26004,26.052775 8.675231,25.418005 7.889175,25.102736 7.05551,24.744092 6.347742,24.274362 5.50773,23.71788 4.961828,23.194195 4.231842,22.523455 c 0,0 -0.942633,-0.769129 -0.942633,-0.769129 C 2.742249,21.234872 1.762588,19.72412 1.402885,19.022699 0.30261701,16.875061 -0.00418799,15.057504 4.3014888e-5,12.675001 0.00104301,11.840278 0.08679301,11.562038 0.26453101,10.770691 c 0,0 0.241213,-1.2695391 0.241213,-1.2695391 0.2994,-1.0410234 1.39755099,-2.8882034 2.02385699,-3.8086194 0,0 0.413659,-0.710943 0.413659,-0.710943 0,0 1.504404,-1.688487 1.504404,-1.688487 1.784762,-1.560477 5.0686366,-2.83636397 7.401416,-3.29022397 z m 8.569393,4.52590897 c 0,0 -1.269539,-1.096036 -1.269539,-1.096036 0,0 -2.221695,-1.059008 -2.221695,-1.059008 0,0 -0.63477,-0.100505 -0.63477,-0.100505 -1.508636,-0.264488 -2.585629,-0.391442 -4.126004,-0.389326 -1.046312,0.0021 -1.167976,0.07829 -2.115899,0.42847 0,0 -0.740565,0.233807 -0.740565,0.233807 -1.127774,0.480309 -1.749848,0.984951 -2.750669,1.559418 0,0 2.780292,2.760191 2.780292,2.760191 0,0 4.307971,4.6454575 4.307971,4.6454575 0,0 0.84636,-0.655929 0.84636,-0.655929 0,0 1.894788,-1.8831505 1.894788,-1.8831505 0,0 0.975429,-1.134122 0.975429,-1.134122 1.232512,-1.268482 2.000583,-1.817558 3.054301,-3.309267 z M 4.760817,20.609624 c 0,0 1.894788,-1.90431 1.894788,-1.90431 0,0 1.191252,-1.375334 1.191252,-1.375334 0,0 1.9921189,-2.005873 1.9921189,-2.005873 0,0 1.4991151,-1.424 1.4991151,-1.424 0.198894,-0.191489 0.612553,-0.533207 0.674972,-0.801926 0.105795,-0.455977 -0.914069,-1.384857 -1.221932,-1.69272 0,0 -1.490651,-1.5826931 -1.490651,-1.5826931 0,0 -0.721522,-0.6569864 -0.721522,-0.6569864 0,0 -0.754318,-0.828375 -0.754318,-0.828375 0,0 -1.155281,-1.163745 -1.155281,-1.163745 -0.321617,-0.334312 -1.330901,-1.55307 -1.798515,-1.42929 -0.350181,0.09204 -0.583988,0.591394 -0.697189,0.900315 0,0 -0.957444,2.1159 -0.957444,2.1159 -0.448571,0.8759824 -0.750086,1.1669184 -0.945807,2.2216945 0,0 -0.102621,0.740565 -0.102621,0.740565 -0.07723,0.372398 -0.197837,0.659103 -0.203127,1.05795 -0.01376,1.165861 0.347008,2.262955 0.574467,3.385439 0,0 0.189373,1.163745 0.189373,1.163745 0.25285,0.886561 1.334075,2.697772 2.032321,3.279644 z m 17.350376,-0.42318 c 0.586104,-0.591394 1.320322,-1.426116 1.607026,-2.221694 0,0 0.391441,-1.90431 0.391441,-1.90431 0,0 0.280357,-1.05795 0.280357,-1.05795 0.230633,-1.200773 0.259198,-3.494408 -0.105795,-4.654978 0,0 -0.432702,-0.9521551 -0.432702,-0.9521551 -0.468671,-1.1394124 -0.467613,-1.3425394 -1.214526,-2.4332854 -0.153402,-0.225343 -0.454918,-0.70671 -0.744796,-0.737391 -0.33537,-0.03597 -0.734217,0.514164 -0.948981,0.737391 0,0 -1.609142,1.710705 -1.609142,1.710705 0,0 -0.732101,0.9299384 -0.732101,0.9299384 -0.363935,0.389325 -0.659103,0.5554231 -1.039965,0.8823301 0,0 -1.357349,1.299162 -1.357349,1.299162 -0.232749,0.223228 -0.828375,0.806158 -0.891852,1.102384 -0.06453,0.302574 0.154461,0.491946 0.351239,0.679204 0,0 1.368987,1.26954 1.368987,1.26954 0,0 2.45127,2.60044 2.45127,2.60044 0,0 1.458913,1.481129 1.458913,1.481129 0.400962,0.418948 0.720463,0.899258 1.167976,1.26954 z m -15.869246,1.90431 c 1.768892,1.251554 3.831894,2.272476 6.030314,2.406835 0,0 1.269539,0 1.269539,0 0.690841,-0.04232 0.789231,0.04549 1.586925,-0.112143 0.526859,-0.104736 0.896083,-0.351239 1.375334,-0.517337 0.520512,-0.181967 0.375573,-0.01481 1.05795,-0.37134 0,0 1.05795,-0.576583 1.05795,-0.576583 0.50041,-0.20101 0.781825,-0.168214 1.26954,-0.553308 0.196778,-0.156576 0.498294,-0.431643 0.517337,-0.699305 0.0328,-0.449628 -0.945807,-1.36687 -1.248381,-1.692719 0,0 -1.904309,-2.010104 -1.904309,-2.010104 0,0 -0.754318,-0.842129 -0.754318,-0.842129 0,0 -1.159513,-1.062181 -1.159513,-1.062181 -0.341718,-0.337486 -1.295989,-1.491709 -1.798515,-1.343596 -0.227459,0.06665 -0.569177,0.430585 -0.739507,0.603031 0,0 -1.633474,1.903251 -1.633474,1.903251 0,0 -1.117195,1.060066 -1.117195,1.060066 0,0 -0.854823,0.941576 -0.854823,0.941576 0,0 -1.809094,1.798514 -1.809094,1.798514 0,0 -1.14576,1.067472 -1.14576,1.067472 z" id="bubble-defeated-2" />
    <path d="m 12.235453,0.05671716 c 1.382254,-0.167514 4.29215,0.04425 5.583798,0.52677297 0,0 0.948192,0.51518397 0.948192,0.51518397 0.955567,0.458293 1.757316,0.765929 2.633866,1.417021 1.952222,1.44968 4.035084,4.428056 4.751496,6.7679828 0,0 0.21703,1.6856751 0.21703,1.6856751 0,0 0.0885,4.951669 0.0885,4.951669 -0.001,0.764876 -0.186477,2.154504 -0.493059,2.844577 -0.321332,0.72484 -0.969263,1.400163 -1.478126,2.001739 -0.490953,0.581557 -0.675324,0.912371 -1.294809,1.456001 0,0 -0.838623,0.610004 -0.838623,0.610004 0,0 -1.057761,1.028261 -1.057761,1.028261 -0.682698,0.502542 -1.113599,0.5942 -1.79103,0.937657 0,0 -0.842837,0.485685 -0.842837,0.485685 0,0 -0.737482,0.251797 -0.737482,0.251797 0,0 -0.948193,0.418258 -0.948193,0.418258 -1.287433,0.438276 -2.658098,0.517292 -4.003477,0.501489 -0.768035,-0.0095 -0.704823,-0.123265 -1.264256,-0.191746 0,0 -0.842837,-0.07269 -0.842837,-0.07269 -2.953091,-0.606843 -5.624886,-2.539047 -7.55393,-4.792583 0,0 -0.847051,-1.158902 -0.847051,-1.158902 -0.844945,-1.166276 -1.368557,-1.71412 -1.84476095,-3.16064 -0.44459604,-1.350647 -0.50675504,-3.009983 -0.50043404,-4.424896 0.0053,-0.999816 0.208602,-1.148366 0.382437,-2.001739 C 0.65592405,9.8936869 0.68437005,9.0687601 0.95723801,8.3354911 1.381818,7.1955541 2.130889,6.2557901 2.827284,5.2802061 c 0,0 0.758554,-1.148366 0.758554,-1.148366 0.244422,-0.292886 0.375062,-0.343456 0.62686,-0.57629 0.654252,-0.604736 1.228435,-1.274791 2.017542,-1.72887 0,0 1.053546,-0.422472 1.053546,-0.422472 1.223168,-0.55732597 2.126057,-0.99454797 3.476704,-1.23791694 0,0 1.474965,-0.109569 1.474965,-0.109569 z m 8.428374,4.69671094 c -0.302368,-0.301314 -0.599468,-0.615272 -0.948192,-0.864962 -1.530803,-1.095689 -4.124636,-1.852135 -6.005216,-1.87426 -1.256881,-0.01475 -0.991387,0.03793 -2.107094,0.181211 -1.077778,0.136961 -1.591909,0.19912 -2.633866,0.601575 -1.374879,0.529934 -1.820529,1.032475 -2.949931,1.745726 0.384545,0.535202 2.353623,2.323071 2.949931,2.862487 0,0 1.676193,1.566624 1.676193,1.566624 0,0 0.954513,0.9882258 0.954513,0.9882258 0.381384,0.3518851 1.352754,1.5950701 1.79419,1.6308911 0.549951,0.0432 1.694103,-1.273738 2.045987,-1.6751401 0,0 1.110439,-1.0577598 1.110439,-1.0577598 0,0 0.851265,-0.939764 0.851265,-0.939764 0,0 0.934496,-0.851266 0.934496,-0.851266 0,0 0.651092,-0.722733 0.651092,-0.722733 0.607897,-0.592093 0.947138,-0.573129 1.676193,-1.590855 z m -8.744438,8.4283729 c 0,0 -1.484447,-1.676193 -1.484447,-1.676193 0,0 -0.7100914,-0.651091 -0.7100914,-0.651091 0,0 -1.8089386,-1.8774209 -1.8089386,-1.8774209 0,0 -1.053546,-0.870229 -1.053546,-0.870229 -0.662681,-0.592093 -1.603498,-1.704639 -2.423158,-1.983829 0,0 -0.669002,1.369611 -0.669002,1.369611 -0.390866,0.704823 -0.615271,0.785946 -0.943978,1.685675 -0.440382,1.2094719 -0.456185,1.7362449 -0.631074,2.9499299 0,0 -0.160139,0.948192 -0.160139,0.948192 0,0 0.07691,0.737483 0.07691,0.737483 0.08955,1.306398 0.298153,2.461085 0.794374,3.687414 0.560487,1.38436 0.98928,1.793136 1.638265,2.949931 0.849159,-0.455132 3.274423,-2.704455 3.993995,-3.476704 0,0 1.1862926,-1.369612 1.1862926,-1.369612 0.6342364,-0.701662 1.6624974,-1.680406 2.1945374,-2.423157 z M 22.138792,6.2283931 c 0,0 -2.194537,1.905866 -2.194537,1.905866 0,0 -0.966103,1.043011 -0.966103,1.043011 0,0 -1.044064,0.9534599 -1.044064,0.9534599 0,0 -0.751179,0.829141 -0.751179,0.829141 0,0 -0.838624,0.751179 -0.838624,0.751179 0,0 -1.474965,1.470751 -1.474965,1.470751 0,0 1.896384,1.795244 1.896384,1.795244 0,0 2.63176,2.528512 2.63176,2.528512 0,0 0.951352,1.049333 0.951352,1.049333 0,0 1.263203,1.248452 1.263203,1.248452 0.180156,0.148551 0.367688,0.304475 0.614218,0.208603 0.201227,-0.07796 0.451971,-0.435115 0.569968,-0.614218 0,0 0.972424,-2.001739 0.972424,-2.001739 0.781731,-1.715174 1.061975,-5.245609 0.517291,-7.058763 C 23.79286,8.6915851 23.072235,7.6285571 22.138792,6.2283931 Z M 20.663827,21.820884 c -1.027208,-1.437038 -3.868624,-4.020334 -5.267734,-5.285643 0,0 -1.36961,-1.253722 -1.36961,-1.253722 -0.1633,-0.144335 -0.397187,-0.392972 -0.631075,-0.392972 -0.267601,0 -0.500434,0.325546 -0.66268,0.505702 0,0 -1.252667,1.369611 -1.252667,1.369611 0,0 -2.501121,2.244055 -2.501121,2.244055 0,0 -1.388574,1.428609 -1.388574,1.428609 -0.655306,0.587879 -1.078831,0.665842 -1.570838,1.489715 1.855296,1.236864 3.7590546,2.206126 6.005216,2.517976 0,0 1.053547,0 1.053547,0 0.455132,0.05057 0.643717,0.140122 1.158901,0.106409 0.544684,-0.03582 2.855112,-0.672163 3.371349,-0.882872 0,0 1.896384,-1.050387 1.896384,-1.050387 0.474096,-0.327652 0.611058,-0.507809 1.158902,-0.796481 z" id="bubble-defeated-1" />
    <path d="m 13.187214,0.06479253 c 1.567256,-0.190641 2.419346,0.06004 3.897075,0.482395 1.211253,0.34547 1.811613,0.430784 2.949137,1.15437597 0,0 0.631958,0.446584 0.631958,0.446584 0,0 0.737285,0.441317 0.737285,0.441317 0.449743,0.350737 0.782574,0.80996 1.168069,1.222839 0,0 1.190188,1.263917 1.190188,1.263917 0,0 1.167016,2.0012 1.167016,2.0012 0,0 0.24225,0.737285 0.24225,0.737285 0,0 0.70358,1.4745684 0.70358,1.4745684 0.339151,0.9574171 0.571922,2.8701431 0.584561,3.8970751 0,0 0,0.947938 0,0.947938 -0.0021,1.031144 -0.08742,0.799426 -0.268582,1.685221 -0.329671,1.611493 -0.447636,1.978029 -1.122779,3.47577 0,0 -0.28754,0.693047 -0.28754,0.693047 0,0 -0.843665,0.992174 -0.843665,0.992174 0,0 -0.670928,0.838398 -0.670928,0.838398 -0.517153,0.589827 -1.238638,1.074329 -1.86217,1.540925 -0.801534,0.601413 -1.044837,0.869995 -2.001201,1.330271 0,0 -0.947937,0.420252 -0.947937,0.420252 -0.433944,0.232772 -0.515046,0.383388 -1.053263,0.584562 0,0 -2.738485,0.606679 -2.738485,0.606679 0,0 -0.737285,0 -0.737285,0 -0.528738,0.03897 -0.312819,0.168523 -1.474569,0.155884 -1.395574,-0.0158 -4.245705,-0.780469 -5.47697,-1.426119 0,0 -0.947937,-0.626692 -0.947937,-0.626692 -1.10066,-0.733072 -2.000147,-1.31026 -2.90806,-2.309807 0,0 -0.718326,-1.009026 -0.718326,-1.009026 -0.274902,-0.359163 -0.646704,-0.775202 -0.86473,-1.15859 -0.349683,-0.615106 -1.02798499,-2.745858 -1.17544199,-3.46629 0,0 0,-0.552964 0,-0.552964 -0.132711,-0.690941 -0.227505,-0.622479 -0.223291,-1.457716 0,0 0,-2.106527 0,-2.106527 0,0 0.172735,-1.053264 0.172735,-1.053264 0,0 0.124285,-0.947937 0.124285,-0.947937 0,0 0.33704404,-1.0532641 0.33704404,-1.0532641 0.22750496,-0.7488704 0.03897,-0.8847414 0.66039695,-2.1065264 0,0 0.730964,-1.15859 0.730964,-1.15859 0,0 0.559283,-0.947937 0.559283,-0.947937 0.791001,-1.142791 1.795814,-2.193948 2.989162,-2.9207 0.775202,-0.472915 2.378269,-1.06169 3.265117,-1.35554997 1.121725,-0.370749 1.440864,-0.671982 2.738485,-0.674089 0.54875,-10e-4 0.921606,0.01791 1.474569,-0.061089 z M 23.40387,18.347341 c 0,0 1.086968,-3.265117 1.086968,-3.265117 0.05161,-0.366536 0.134817,-1.020613 0,-1.369243 -0.159043,-0.461329 -1.704181,-1.969603 -2.122327,-2.421453 0,0 -4.546938,-4.2235865 -4.546938,-4.2235865 0,0 -2.106527,-2.202374 -2.106527,-2.202374 0,0 -2.106527,-1.892714 -2.106527,-1.892714 -0.202226,-0.191695 -0.832078,-0.804694 -1.071169,-0.869996 -0.218025,-0.06004 -0.75203,0.09901 -1.035358,0.144297 0,0 -0.737284,0 -0.737284,0 -0.7804681,0.180108 -2.031745,0.664609 -2.738485,1.038518 0.427625,0.596147 2.493074,2.444624 3.155577,3.072369 0,0 1.162803,1.241798 1.162803,1.241798 0,0 2.527833,2.2339724 2.527833,2.2339724 0,0 1.158589,1.1227781 1.158589,1.1227781 0,0 1.474569,1.185975 1.474569,1.185975 1.699967,1.575682 4.258344,5.030387 5.898276,6.204776 z m 0.947937,-7.372845 c -0.168523,-0.894221 -0.769936,-2.7184735 -1.242851,-3.4757695 0,0 -1.044837,-1.369243 -1.044837,-1.369243 0,0 -0.575082,-0.715166 -0.575082,-0.715166 -0.444478,-0.433944 -1.536712,-1.069062 -2.087569,-1.456663 -1.233371,-0.865783 -2.429879,-1.719979 -4.002401,-1.725246 0,0 3.686422,3.581096 3.686422,3.581096 0,0 1.474569,1.579895 1.474569,1.579895 0,0 1.790548,1.685222 1.790548,1.685222 0,0 2.001201,1.8958745 2.001201,1.8958745 z M 6.217769,4.7023115 c -0.466595,0.02949 -0.591934,0.265422 -0.930032,0.567709 -1.0975,0.978482 -0.869995,0.841558 -1.586214,2.018053 -0.19696,0.323352 -0.56139,0.760456 -0.401294,1.15859 0.15799,0.396027 1.11014,1.1849214 1.456664,1.5040604 0,0 1.478782,1.5493501 1.478782,1.5493501 0,0 1.023772,0.877369 1.023772,0.877369 0,0 2.874356,3.019706 2.874356,3.019706 0,0 2.000147,1.801081 2.000147,1.801081 0,0 2.106527,2.092835 2.106527,2.092835 0,0 1.149111,0.995334 1.149111,0.995334 0,0 2.111793,2.033851 2.111793,2.033851 0.187481,0.171682 0.653023,0.673036 0.851037,0.741498 0.29386,0.10006 0.769935,-0.207493 1.04905,-0.333884 0.789948,-0.36127 1.448238,-1.009027 2.030692,-1.646252 0.152723,-0.166415 0.517153,-0.535057 0.584561,-0.733071 0.146404,-0.423412 -0.451849,-0.891061 -0.719378,-1.158589 0,0 -2.843812,-2.738486 -2.843812,-2.738486 0,0 -1.579895,-1.474569 -1.579895,-1.474569 0,0 -2.318233,-2.421453 -2.318233,-2.421453 0,0 -1.05221,-0.953203 -1.05221,-0.953203 0,0 -1.168069,-1.241797 -1.168069,-1.241797 0,0 -2.5183531,-2.3445655 -2.5183531,-2.3445655 0,0 -0.9479369,-0.907913 -0.9479369,-0.907913 0,0 -1.023773,-0.873155 -1.023773,-0.873155 C 7.469046,5.8672215 6.591678,4.9224435 6.217769,4.7023115 Z M 2.443926,10.553191 c -0.654076,1.062742 -0.427625,2.576282 -0.421305,3.791748 0.0042,0.756244 0.629851,2.886995 1.094341,3.474716 0,0 1.854796,1.687329 1.854796,1.687329 1.152271,1.138577 1.083809,1.266022 2.527833,2.394068 0.760456,0.595093 1.308153,1.620972 2.2118526,1.987508 0.7762554,0.314925 1.1912414,0.344417 2.0012014,0.285434 0.823652,-0.06004 1.221785,0.364429 2.106527,0.386548 1.026932,0.02422 1.471409,-0.273849 2.422506,-0.420252 -0.329672,-0.696208 -1.597801,-1.814773 -2.202374,-2.378269 0,0 -2.133912,-2.106527 -2.133912,-2.106527 0,0 -1.667316,-1.432438 -1.667316,-1.432438 0,0 -2.66265,-2.701622 -2.66265,-2.701622 0,0 -2.480436,-2.344564 -2.480436,-2.344564 C 4.334534,12.393242 3.323401,11.148284 2.443926,10.553191 Z" id="bubble-dead-4" />
    <path d="m 11.185503,0.14164953 c 3.725946,-0.46051 7.755409,0.146526 10.704243,2.64008297 3.626517,3.063962 5.392678,9.7047265 4.196921,14.2548805 -0.245954,0.931486 -1.483575,3.393644 -2.061829,4.186455 -1.433861,1.97025 -3.320382,3.063962 -5.513038,4.01638 -2.307784,0.999516 -3.770427,1.245471 -6.279683,1.216689 C 10.091792,26.429967 9.118441,25.930213 7.260701,24.94378 5.332315,23.920715 3.537373,22.533951 2.315451,20.699761 0.62517005,18.159106 -0.30631699,14.304951 0.29548601,11.280237 c 0,0 0.648901,-2.0932285 0.648901,-2.0932285 C 1.321168,7.9022905 1.758129,6.4108655 2.540473,5.3066885 4.607535,2.3840195 7.73691,0.70682053 11.185503,0.14164953 Z M 24.268176,13.111811 C 23.760568,6.8635265 20.134051,2.2662755 13.540385,2.1223655 c 0.750945,1.588237 2.415061,2.938368 3.663148,4.186455 1.674582,1.674582 5.39006,5.6046175 7.064643,6.8029905 z m -2.354881,7.064643 c 0.638434,-0.837291 2.043513,-3.111059 1.726913,-4.186455 -0.201474,-0.682915 -2.195273,-2.804925 -2.776144,-3.401495 0,0 -7.062026,-6.7977565 -7.062026,-6.7977565 -0.695998,-0.648901 -2.872955,-2.726429 -3.663148,-2.912203 -1.551606,-0.366315 -3.095361,0.994283 -3.924803,2.122009 0,0 5.23307,4.7333114 5.23307,4.7333114 0,0 4.448109,4.4245601 4.448109,4.4245601 0,0 6.018029,6.018029 6.018029,6.018029 z M 4.644167,6.5704745 c -0.74048,0.72478 -2.153408,2.538038 -1.747845,3.6395995 0.274736,0.743096 2.857255,2.815391 3.579419,3.469525 0,0 6.792524,6.758509 6.792524,6.758509 0.735246,0.769261 2.25022,2.765677 3.150308,3.079661 0.968117,0.337532 2.993315,-1.062314 3.924801,-1.509741 0,0 -3.901253,-4.183839 -3.901253,-4.183839 0,0 -11.797954,-11.2537145 -11.797954,-11.2537145 z M 2.550939,13.111811 c -0.570405,1.486192 0.261653,3.652682 1.015215,4.971416 2.279002,3.995447 5.62555,6.237818 10.235884,6.279682 C 11.622465,21.317263 5.536405,16.097276 2.550939,13.111811 Z" id="bubble-dead-3" />
    <path d="m 11.857809,6.0152743e-4 c 0,0 1.3763,0 1.3763,0 C 14.38279,-0.02056847 16.691796,0.52147753 17.786483,0.92695953 c 0,0 1.693907,0.52193197 1.693907,0.52193197 0.632042,0.285849 2.559918,1.748961 3.06068,2.243372 0.574866,0.567456 1.1815,1.430292 1.6325,2.107854 0.914711,1.371004 1.742606,2.908226 2.03375,4.5523755 0,0 0.06775,0.846953 0.06775,0.846953 0,0 0.183153,0.846954 0.183153,0.846954 0,0 0,1.693906 0,1.693906 0.0074,1.264078 -0.359953,2.296303 -0.666974,3.493683 0,0 -0.122816,0.741085 -0.122816,0.741085 -0.09633,0.363132 -0.30067,0.616158 -0.452061,0.952823 0,0 -0.451005,1.164561 -0.451005,1.164561 -0.179977,0.316548 -0.743199,0.94541 -1.002579,1.27043 -1.139153,1.422881 -2.53345,2.719778 -4.146896,3.594258 0,0 -2.464635,0.917886 -2.464635,0.917886 0,0 -1.482169,0.225501 -1.482169,0.225501 -1.09998,0.183155 -1.940581,0.35678 -3.070205,0.344075 0,0 -0.952824,-0.08787 -0.952824,-0.08787 -1.7066021,-0.170454 -1.7108371,-0.220212 -3.281935,-0.938006 0,0 -0.846954,-0.372659 -0.846954,-0.372659 0,0 -0.846954,-0.562166 -0.846954,-0.562166 0,0 -0.952821,-0.517701 -0.952821,-0.517701 C 5.18805,23.564966 4.81645,22.994332 4.340038,22.536977 2.943624,21.197731 1.883874,20.101985 1.104677,18.292682 -0.00165599,15.727472 -0.00377399,14.225187 4.6101489e-4,11.517053 0.00256101,9.9724219 0.56897905,8.7443395 1.244424,7.3881555 c 0.518759,-1.039636 0.701913,-1.686496 1.457819,-2.646729 1.317012,-1.673795 4.02938,-3.521212 6.085359,-4.12466397 0,0 3.070207,-0.61616100257 3.070207,-0.61616100257 z M 23.926895,16.810513 c 0.166216,-0.575928 0.608749,-2.82459 0.630982,-3.387814 0.01376,-0.352544 -0.103745,-1.728844 -0.240322,-2.011515 -0.323962,-0.666975 -1.402767,-1.6399131 -1.978698,-2.1353811 0,0 -2.117381,-1.8876474 -2.117381,-1.8876474 -1.071397,-0.929531 -0.803548,-0.943296 -1.597568,-1.799778 0,0 -1.47264,-1.464172 -1.47264,-1.464172 0,0 -0.951764,-0.777079 -0.951764,-0.777079 -0.402303,-0.364187 -0.997288,-1.095743 -1.483227,-1.279957 -0.188446,-0.07199 -1.105274,-0.113279 -1.376299,-0.13022 -0.415007,-0.02645 -0.85754,0.07835 -1.27043,0.128102 -1.218554,0.146098 -1.322307,0.08787 -2.5408604,0.55899 0,0 1.2704304,1.376298 1.2704304,1.376298 0,0 1.269371,1.168796 1.269371,1.168796 0,0 0.958116,1.050223 0.958116,1.050223 0,0 0.838483,0.754848 0.838483,0.754848 0,0 0.855423,0.943294 0.855423,0.943294 0,0 1.115862,1.076689 1.115862,1.076689 0,0 1.954345,2.0983285 1.954345,2.0983285 0,0 1.160327,1.060809 1.160327,1.060809 0,0 1.693906,1.673792 1.693906,1.673792 0,0 0.846956,0.673328 0.846956,0.673328 0,0 2.434988,2.310065 2.434988,2.310066 z M 18.739306,3.3651245 c 0,0 -0.105863,0 -0.105863,0 0,0 0.105863,0.105872 0.105863,0.105872 0,0 0,-0.105872 0,-0.105872 z m 0.105863,0.105872 c 0,0 -0.105863,0 -0.105863,0 0,0 0.105863,0.105867 0.105863,0.105867 0,0 0,-0.105867 0,-0.105867 z M 3.917621,7.0705475 c 0,0 2.393701,2.2274884 2.393701,2.2274884 0,0 0.592868,0.8331901 0.592868,0.8331901 0,0 1.458878,1.297956 1.458878,1.297956 0,0 0.85754,0.916827 0.85754,0.916827 0,0 1.471581,1.228083 1.471581,1.228083 0,0 4.447564,4.359693 4.447564,4.359693 0,0 2.814004,2.793888 2.814004,2.793888 0.250909,0.287964 1.436646,1.474757 1.734139,1.552041 0.335605,0.08787 0.806721,-0.546284 1.062924,-0.764375 1.315952,-1.115862 0.8893,-0.417125 1.88553,-2.058096 0.205385,-0.338781 0.479586,-0.648979 0.298553,-1.058693 -0.139754,-0.319724 -0.753791,-0.900947 -1.019522,-1.164561 0,0 -2.54086,-2.347119 -2.54086,-2.347119 0,0 -3.81129,-3.783765 -3.81129,-3.783765 0,0 -1.164562,-0.980349 -1.164562,-0.980349 0,0 -2.84894,-2.7346005 -2.84894,-2.7346005 0,0 -0.96235,-1.049164 -0.96235,-1.049164 C 10.00404,5.7895295 9.5276276,5.4793325 8.970757,4.8462345 8.66056,4.4926305 8.096277,3.7399035 7.623041,3.6583845 7.232384,3.5906345 6.646929,4.0130445 6.352612,4.2427815 5.590354,4.8377675 4.16959,6.1452505 3.917621,7.0705475 Z m 15.033424,-3.493683 c 0,0 -0.105878,0 -0.105878,0 0,0 0.105878,0.105867 0.105878,0.105867 0,0 0,-0.105867 0,-0.105867 z m 0.105862,0.105867 c 0.07728,0.515583 0.569578,0.809898 0.908356,1.17409 0.600279,0.645802 2.451931,2.53451 3.114675,2.954809 -0.111171,-0.65427 -0.497589,-0.758022 -0.896712,-1.270431 0,0 -0.771789,-1.049163 -0.771789,-1.049163 -0.316541,-0.352543 -1.927871,-1.560512 -2.354524,-1.809304 z M 2.858929,8.7644545 C 2.449215,9.3954349 1.884933,11.19627 1.849996,11.94053 c 0,0 0.0667,0.846954 0.0667,0.846954 -0.0053,0.377953 -0.09211,1.033283 0,1.358301 0.131277,0.370543 0.843777,0.881891 1.153974,1.183617 0,0 2.751539,2.857411 2.751539,2.857411 0,0 1.818832,1.993515 1.818832,1.993515 0,0 1.146563,0.988819 1.146563,0.988819 0,0 1.58804,1.570039 1.58804,1.570039 0.318664,0.314432 1.697082,1.620858 2.011513,1.736255 0.22656,0.08363 0.697679,0.06458 0.952823,0.06352 0.904123,-0.0042 1.773309,-0.275259 2.646729,-0.476412 0.65533,-0.151392 1.449348,-0.304902 2.011515,-0.688149 0,0 -1.90141,-1.592272 -1.90141,-1.592272 0,0 -1.419706,-1.513929 -1.419706,-1.513929 0,0 -0.701913,-0.608748 -0.701913,-0.608748 0,0 -2.415935,-2.349236 -2.415935,-2.349236 0,0 -0.673328,-0.787668 -0.673328,-0.787668 0,0 -1.882354,-1.829419 -1.882354,-1.829419 0,0 -2.121619,-2.219018 -2.121619,-2.219018 0,0 -1.578509,-1.354067 -1.578509,-1.354067 0,0 -0.86601,-0.949647 -0.86601,-0.949647 0,0 -1.578509,-1.4059435 -1.578509,-1.4059435 z m 0.10587,8.9988805 c 0,0 -0.10587,0 -0.10587,0 0,0 0.10587,0.105863 0.10587,0.105863 0,0 0,-0.105863 0,-0.105863 z m 0.105869,0.211739 c -0.184213,0.678622 0.431946,1.36783 0.772845,1.905645 1.031165,1.620856 3.10726,3.459805 5.04996,3.81129 0,0 -1.337128,-1.420764 -1.337128,-1.420764 0,0 -0.579105,-0.692384 -0.579105,-0.692384 0,0 -1.277841,-1.230201 -1.277841,-1.230201 0,0 -2.628731,-2.373586 -2.628731,-2.373586 z" id="bubble-dead-2" />
    <path d="m 11.384182,7.1552743e-4 c 0,0 3.375833,0 3.375833,0 1.01064,-0.0210899974 2.965459,0.42831000257 3.903309,0.82075000257 0,0 1.054945,0.65512197 1.054945,0.65512197 0.773279,0.429362 1.405191,0.716309 2.109898,1.293366 1.943211,1.592972 3.464445,4.015131 4.254602,6.386657 0,0 0.375564,1.1604405 0.375564,1.1604405 0,0 0,1.582423 0,1.582423 0,0 0,3.270339 0,3.270339 -0.0053,1.367212 -0.302769,3.329416 -0.955781,4.536276 -0.322817,0.593935 -1.179435,1.408357 -1.669986,1.898907 -0.401934,0.401933 -0.933627,0.965278 -1.37143,1.299697 0,0 -1.037016,0.657231 -1.037016,0.657231 -0.315428,0.259519 -0.4589,0.545409 -0.86189,0.802815 -0.590774,0.377673 -1.467435,0.640353 -2.109898,0.924135 0,0 -0.738463,0.373449 -0.738463,0.373449 0,0 -0.738463,0.185673 -0.738463,0.185673 0,0 -0.843959,0.333363 -0.843959,0.333363 -0.655123,0.201496 -2.137324,0.284838 -2.848359,0.276396 -0.3091,-0.0042 -1.409411,-0.113928 -1.687916,-0.185669 0,0 -0.843959,-0.277454 -0.843959,-0.277454 C 10.330289,25.887034 10.227958,25.976682 9.6962636,25.800524 6.284563,24.667507 3.683062,22.333964 1.842178,19.284111 c 0,0 -0.826024,-1.265939 -0.826024,-1.265939 -0.52114499,-0.926244 -0.90725599,-2.414777 -0.91991499,-3.481328 0,0 0,-1.476928 0,-1.476928 0.0074,-1.602465 0.212045,-2.025499 0.63613404,-3.4813281 0,0 0.53063895,-2.1098974 0.53063895,-2.1098974 0.447297,-1.047562 1.259607,-1.983299 1.983302,-2.848359 0,0 0.982156,-1.252222 0.982156,-1.252222 0,0 0.781716,-0.58444 0.781716,-0.58444 0,0 0.677277,-0.615035 0.677277,-0.615035 0.248967,-0.187781 1.10875,-0.760619 1.371432,-0.880881 0,0 1.054947,-0.30066297 1.054947,-0.30066297 1.4273446,-0.498991 1.6678736,-0.700484 3.27034,-0.98637500257 z M 24.254548,15.908276 c 0.371341,-2.040269 0.319647,-1.377762 0.316484,-3.481328 -0.0032,-2.020225 -0.664618,-2.4422031 -2.004403,-3.7978135 0,0 -1.265938,-1.371431 -1.265938,-1.371431 0,0 -3.586822,-3.393769 -3.586822,-3.393769 -0.546462,-0.493716 -1.323959,-1.362994 -2.0044,-1.634116 -1.283872,-0.510594 -3.942341,-0.2669 -5.27474,0.06963 0,0 1.687916,1.591916 1.687916,1.591916 0,0 2.633151,2.627875 2.633151,2.627875 0,0 0.954727,1.05495 0.954727,1.05495 0,0 2.31983,2.2196094 2.31983,2.2196094 0,0 2.63737,2.6331501 2.63737,2.6331501 0,0 3.586825,3.481329 3.586825,3.481329 z m -3.692318,6.013205 c 1.233234,-1.233235 1.413627,-1.34717 2.353586,-2.848361 0.204659,-0.328092 0.585497,-0.757453 0.535916,-1.160442 -0.04747,-0.380837 -0.523256,-0.884047 -0.779606,-1.159388 0,0 -2.109896,-2.216446 -2.109896,-2.216446 0,0 -2.953855,-2.852581 -2.953855,-2.852581 0,0 -1.582422,-1.573981 -1.582422,-1.573981 0,0 -4.219793,-3.8157475 -4.219793,-3.8157475 0,0 -2.42638,-2.231216 -2.42638,-2.231216 -0.256352,-0.226812 -0.737408,-0.766947 -1.054947,-0.82075 -0.336529,-0.05696 -0.790156,0.317541 -1.054948,0.503213 -1.234289,0.862947 -0.839739,0.436747 -2.108841,1.583475 -0.235254,0.212047 -0.725805,0.590772 -0.602376,0.960003 0.04325,0.12976 1.147784,1.096091 1.339784,1.283872 0,0 1.687918,1.495916 1.687918,1.495916 0,0 1.054947,1.0190815 1.054947,1.0190815 0,0 1.0454526,0.967388 1.0454526,0.967388 0,0 1.2754324,1.370376 1.2754324,1.370376 0,0 3.169064,3.060404 3.169064,3.060404 0,0 4.110074,4.219792 4.110074,4.219792 0.612926,0.612926 1.671038,1.75016 2.32089,2.215392 z M 3.366578,8.1016595 c -0.448353,0.440969 -0.320705,0.62875 -0.530639,1.1604444 -0.60343,1.5307281 -0.5011,2.3947311 -0.840794,3.9033071 0.878772,0.557013 1.255388,1.002201 2.004402,1.642554 0,0 2.666908,2.516051 2.666908,2.516051 0,0 2.048708,1.989632 2.048708,1.989632 0,0 0.682551,0.814419 0.682551,0.814419 0,0 1.142509,1.160445 1.142509,1.160445 0,0 1.880973,1.898906 1.880973,1.898906 0.327033,0.361846 0.828134,1.040178 1.283871,1.20264 0.288001,0.102324 0.937849,-0.01897 1.265937,-0.05802 1.379872,-0.165629 2.472798,-0.605541 3.69232,-1.250113 0,0 -3.063571,-3.47711 -3.063571,-3.47711 0,0 -1.261718,-1.164663 -1.261718,-1.164663 0,0 -2.742863,-2.638424 -2.742863,-2.638424 0,0 -2.531876,-2.512887 -2.531876,-2.512887 0,0 -5.696718,-5.1871805 -5.696718,-5.1871815 z M 2.522619,16.22476 c -0.118154,0.667783 0.659343,1.830335 0.976882,2.426381 1.19842,2.250205 4.450826,5.120717 7.040722,5.48573 C 8.843866,21.737918 4.765438,18.467579 2.522619,16.22476 Z m 8.123098,7.912111 c 0,0 -0.105488,0 -0.105488,0 0,0 0.105488,0.105489 0.105488,0.105489 0,0 0,-0.105489 0,-0.105489 z" id="bubble-dead-1" />
  </g>
</svg>
